<svg width="162" height="29" viewBox="0 0 162 29" fill="none" xmlns="http://www.w3.org/2000/svg">
<path d="M12.973 8.36364L12.3722 11.9432H0.764205L1.36506 8.36364H12.973ZM0.981534 28L4.57386 6.50994C4.77841 5.18892 5.22585 4.08949 5.91619 3.21165C6.61506 2.33381 7.46307 1.67756 8.46023 1.2429C9.46591 0.808237 10.5355 0.590907 11.669 0.590907C12.4787 0.590907 13.1818 0.654828 13.7784 0.78267C14.375 0.910511 14.8097 1.02557 15.0824 1.12784L13.5866 4.70739C13.3906 4.64773 13.152 4.58807 12.8707 4.52841C12.598 4.46023 12.2784 4.42614 11.9119 4.42614C11.0511 4.42614 10.4077 4.63494 9.98153 5.05256C9.5554 5.46165 9.27415 6.04971 9.13778 6.81676L5.62216 28H0.981534ZM13.3469 28L16.6197 8.36364H21.1069L20.5572 11.6364H20.7617C21.2987 10.5028 22.0572 9.62926 23.0373 9.01562C24.0259 8.39347 25.0827 8.08239 26.2077 8.08239C26.4719 8.08239 26.7575 8.09517 27.0643 8.12074C27.3711 8.13778 27.6353 8.16761 27.8569 8.21023L27.141 12.4673C26.945 12.3991 26.6381 12.3395 26.2205 12.2884C25.8114 12.2287 25.4066 12.1989 25.006 12.1989C24.1623 12.1989 23.3782 12.3821 22.6538 12.7486C21.9379 13.1065 21.3327 13.6051 20.8384 14.2443C20.3441 14.8835 20.0245 15.6207 19.8796 16.456L17.9748 28H13.3469ZM35.489 28.3835C33.5202 28.3835 31.8924 27.9744 30.6055 27.1562C29.3185 26.3295 28.4151 25.1619 27.8952 23.6534C27.3839 22.1364 27.2987 20.3509 27.6396 18.2969C27.9719 16.277 28.6495 14.5043 29.6722 12.9787C30.695 11.4446 31.9734 10.2514 33.5075 9.39915C35.0501 8.53835 36.7546 8.10795 38.6211 8.10795C39.8313 8.10795 40.9435 8.30398 41.9577 8.69602C42.9719 9.07954 43.8285 9.67614 44.5273 10.4858C45.2262 11.2955 45.7077 12.3267 45.9719 13.5795C46.2362 14.8239 46.2234 16.3068 45.9336 18.0284L45.7163 19.4474H29.6083L30.1069 16.3281H41.766C41.9194 15.4418 41.8683 14.6534 41.6126 13.9631C41.3569 13.2642 40.9308 12.7145 40.3342 12.3139C39.7376 11.9134 38.9918 11.7131 38.0969 11.7131C37.185 11.7131 36.3327 11.9474 35.5401 12.4162C34.756 12.8764 34.0955 13.473 33.5586 14.206C33.0217 14.9389 32.6808 15.7102 32.5359 16.5199L32.0117 19.5114C31.8242 20.7386 31.8668 21.7401 32.1396 22.5156C32.4123 23.2912 32.8896 23.8622 33.5714 24.2287C34.2532 24.5952 35.114 24.7784 36.1538 24.7784C36.8356 24.7784 37.4663 24.6847 38.0458 24.4972C38.6254 24.3097 39.141 24.0284 39.5927 23.6534C40.0529 23.2699 40.4364 22.8011 40.7433 22.2472L44.9748 22.733C44.506 23.875 43.82 24.8722 42.9165 25.7244C42.0131 26.5682 40.9308 27.2244 39.6694 27.6932C38.4165 28.1534 37.0231 28.3835 35.489 28.3835ZM56.864 28.3835C54.8952 28.3835 53.2674 27.9744 51.9805 27.1562C50.6935 26.3295 49.7901 25.1619 49.2702 23.6534C48.7589 22.1364 48.6737 20.3509 49.0146 18.2969C49.3469 16.277 50.0245 14.5043 51.0472 12.9787C52.07 11.4446 53.3484 10.2514 54.8825 9.39915C56.4251 8.53835 58.1296 8.10795 59.9961 8.10795C61.2063 8.10795 62.3185 8.30398 63.3327 8.69602C64.3469 9.07954 65.2035 9.67614 65.9023 10.4858C66.6012 11.2955 67.0827 12.3267 67.3469 13.5795C67.6112 14.8239 67.5984 16.3068 67.3086 18.0284L67.0913 19.4474H50.9833L51.4819 16.3281H63.141C63.2944 15.4418 63.2433 14.6534 62.9876 13.9631C62.7319 13.2642 62.3058 12.7145 61.7092 12.3139C61.1126 11.9134 60.3668 11.7131 59.4719 11.7131C58.56 11.7131 57.7077 11.9474 56.9151 12.4162C56.131 12.8764 55.4705 13.473 54.9336 14.206C54.3967 14.9389 54.0558 15.7102 53.9109 16.5199L53.3867 19.5114C53.1992 20.7386 53.2418 21.7401 53.5146 22.5156C53.7873 23.2912 54.2646 23.8622 54.9464 24.2287C55.6282 24.5952 56.489 24.7784 57.5288 24.7784C58.2106 24.7784 58.8413 24.6847 59.4208 24.4972C60.0004 24.3097 60.516 24.0284 60.9677 23.6534C61.4279 23.2699 61.8114 22.8011 62.1183 22.2472L66.3498 22.733C65.881 23.875 65.195 24.8722 64.2915 25.7244C63.3881 26.5682 62.3058 27.2244 61.0444 27.6932C59.7915 28.1534 58.3981 28.3835 56.864 28.3835ZM78.5714 1.81818L74.2248 28H69.5969L73.9435 1.81818H78.5714ZM84.5831 28.3963C83.3388 28.3963 82.2564 28.1747 81.3359 27.7315C80.4155 27.2798 79.7379 26.6151 79.3033 25.7372C78.8771 24.8594 78.7706 23.777 78.9837 22.4901C79.1712 21.3821 79.5291 20.4659 80.0575 19.7415C80.5945 19.017 81.2507 18.4375 82.0263 18.0028C82.8104 17.5597 83.6626 17.2273 84.5831 17.0057C85.5121 16.7841 86.4581 16.6222 87.4212 16.5199C88.5973 16.4006 89.5476 16.2898 90.272 16.1875C91.005 16.0852 91.5547 15.9318 91.9212 15.7273C92.2876 15.5142 92.5092 15.1903 92.5859 14.7557V14.679C92.7393 13.7159 92.5859 12.9702 92.1257 12.4418C91.6655 11.9134 90.8984 11.6491 89.8246 11.6491C88.6996 11.6491 87.7536 11.8963 86.9865 12.3906C86.2195 12.8849 85.6612 13.4687 85.3118 14.142L81.1186 13.5284C81.647 12.3352 82.3714 11.3381 83.2919 10.5369C84.2124 9.72727 85.2734 9.12216 86.4751 8.72159C87.6854 8.3125 88.9766 8.10795 90.3487 8.10795C91.2862 8.10795 92.2024 8.21875 93.0973 8.44034C94.0007 8.66193 94.7976 9.02841 95.4879 9.53977C96.1868 10.0426 96.6982 10.7287 97.022 11.598C97.3544 12.4673 97.4098 13.554 97.1882 14.858L95.0021 28H90.5533L91.0135 25.3026H90.8601C90.4936 25.848 90.0163 26.3594 89.4283 26.8366C88.8402 27.3054 88.1413 27.6847 87.3317 27.9744C86.522 28.2557 85.6058 28.3963 84.5831 28.3963ZM86.3345 24.9957C87.2635 24.9957 88.0987 24.8125 88.8402 24.446C89.5817 24.071 90.1911 23.5767 90.6683 22.9631C91.1456 22.3494 91.4439 21.6804 91.5632 20.956L91.9467 18.642C91.7763 18.7614 91.5121 18.8722 91.1541 18.9744C90.7962 19.0767 90.3956 19.1662 89.9524 19.2429C89.5178 19.3196 89.0874 19.3878 88.6612 19.4474C88.2351 19.5071 87.8686 19.5582 87.5618 19.6009C86.8544 19.6946 86.2067 19.848 85.6186 20.0611C85.0391 20.2741 84.5575 20.5724 84.174 20.956C83.799 21.331 83.5646 21.8168 83.4709 22.4134C83.3345 23.2571 83.5348 23.9006 84.0717 24.3438C84.6087 24.7784 85.3629 24.9957 86.3345 24.9957ZM106.201 16.4943L104.309 28H99.6683L102.941 8.36364H107.377L106.815 11.7003H107.058C107.671 10.6009 108.532 9.72727 109.64 9.07955C110.748 8.43182 112.039 8.10795 113.513 8.10795C114.852 8.10795 115.977 8.39773 116.888 8.97727C117.8 9.54829 118.448 10.3878 118.832 11.4957C119.215 12.5952 119.275 13.929 119.011 15.4972L116.914 28H112.286L114.242 16.2131C114.464 14.9091 114.298 13.8864 113.744 13.1449C113.198 12.3949 112.32 12.0199 111.11 12.0199C110.3 12.0199 109.555 12.1989 108.873 12.5568C108.191 12.9062 107.616 13.4134 107.147 14.0781C106.687 14.7429 106.371 15.5483 106.201 16.4943ZM130.107 28.3835C128.147 28.3835 126.536 27.9531 125.275 27.0923C124.013 26.2315 123.131 25.0426 122.629 23.5256C122.134 22 122.053 20.2443 122.386 18.2585C122.71 16.2642 123.379 14.5043 124.393 12.9787C125.415 11.4446 126.702 10.2514 128.254 9.39915C129.805 8.53835 131.539 8.10795 133.457 8.10795C135.05 8.10795 136.41 8.40199 137.535 8.99006C138.668 9.5696 139.512 10.392 140.066 11.4574C140.629 12.5142 140.846 13.75 140.718 15.1648H136.282C136.265 14.2187 135.971 13.4304 135.4 12.7997C134.829 12.1605 133.994 11.8409 132.894 11.8409C131.94 11.8409 131.062 12.0966 130.261 12.608C129.46 13.1108 128.782 13.8352 128.228 14.7812C127.674 15.7273 127.29 16.8608 127.077 18.1818C126.856 19.5199 126.86 20.6705 127.09 21.6335C127.329 22.5881 127.759 23.3253 128.381 23.8452C129.012 24.3565 129.809 24.6122 130.772 24.6122C131.454 24.6122 132.089 24.4844 132.677 24.2287C133.265 23.9645 133.781 23.5852 134.224 23.0909C134.675 22.5966 135.029 21.9957 135.285 21.2884H139.708C139.359 22.6776 138.737 23.9091 137.842 24.983C136.955 26.0483 135.856 26.8835 134.543 27.4886C133.231 28.0852 131.752 28.3835 130.107 28.3835ZM151.012 28.3835C149.044 28.3835 147.416 27.9744 146.129 27.1562C144.842 26.3295 143.939 25.1619 143.419 23.6534C142.907 22.1364 142.822 20.3509 143.163 18.2969C143.495 16.277 144.173 14.5043 145.196 12.9787C146.218 11.4446 147.497 10.2514 149.031 9.39915C150.574 8.53835 152.278 8.10795 154.145 8.10795C155.355 8.10795 156.467 8.30398 157.481 8.69602C158.495 9.07954 159.352 9.67614 160.051 10.4858C160.75 11.2955 161.231 12.3267 161.495 13.5795C161.76 14.8239 161.747 16.3068 161.457 18.0284L161.24 19.4474H145.132L145.63 16.3281H157.289C157.443 15.4418 157.392 14.6534 157.136 13.9631C156.88 13.2642 156.454 12.7145 155.858 12.3139C155.261 11.9134 154.515 11.7131 153.62 11.7131C152.708 11.7131 151.856 11.9474 151.064 12.4162C150.279 12.8764 149.619 13.473 149.082 14.206C148.545 14.9389 148.204 15.7102 148.059 16.5199L147.535 19.5114C147.348 20.7386 147.39 21.7401 147.663 22.5156C147.936 23.2912 148.413 23.8622 149.095 24.2287C149.777 24.5952 150.637 24.7784 151.677 24.7784C152.359 24.7784 152.99 24.6847 153.569 24.4972C154.149 24.3097 154.664 24.0284 155.116 23.6534C155.576 23.2699 155.96 22.8011 156.267 22.2472L160.498 22.733C160.029 23.875 159.343 24.8722 158.44 25.7244C157.537 26.5682 156.454 27.2244 155.193 27.6932C153.94 28.1534 152.547 28.3835 151.012 28.3835Z" fill="#8C39CD"/>
<path d="M12.973 8.36364L13.9592 8.52918L14.1549 7.36364H12.973V8.36364ZM12.3722 11.9432V12.9432H13.2183L13.3584 12.1087L12.3722 11.9432ZM0.764205 11.9432L-0.221998 11.7776L-0.417643 12.9432H0.764205V11.9432ZM1.36506 8.36364V7.36364H0.518924L0.378854 8.19809L1.36506 8.36364ZM0.981534 28L-0.00478029 27.8351L-0.199504 29H0.981534V28ZM4.57386 6.50994L5.56025 6.67483L5.56209 6.66296L4.57386 6.50994ZM5.91619 3.21165L5.13383 2.58879L5.13014 2.59349L5.91619 3.21165ZM8.46023 1.2429L8.06349 0.324959L8.06064 0.3262L8.46023 1.2429ZM13.7784 0.78267L13.5689 1.76047L13.5689 1.76047L13.7784 0.78267ZM15.0824 1.12784L16.0051 1.51339L16.4052 0.555886L15.4335 0.191512L15.0824 1.12784ZM13.5866 4.70739L13.2955 5.66406L14.1607 5.92737L14.5093 5.09294L13.5866 4.70739ZM12.8707 4.52841L12.6282 5.49855L12.6456 5.50291L12.6632 5.50664L12.8707 4.52841ZM9.98153 5.05256L10.6741 5.77398L10.6815 5.76677L9.98153 5.05256ZM9.13778 6.81676L8.15316 6.64172L8.15128 6.65304L9.13778 6.81676ZM5.62216 28V29H6.46988L6.60867 28.1637L5.62216 28ZM11.9868 8.19809L11.386 11.7776L13.3584 12.1087L13.9592 8.52918L11.9868 8.19809ZM12.3722 10.9432H0.764205V12.9432H12.3722V10.9432ZM1.75041 12.1087L2.35126 8.52918L0.378854 8.19809L-0.221998 11.7776L1.75041 12.1087ZM1.36506 9.36364H12.973V7.36364H1.36506V9.36364ZM1.96785 28.1649L5.56018 6.67482L3.58755 6.34507L-0.00478029 27.8351L1.96785 28.1649ZM5.56209 6.66296C5.74551 5.47833 6.13727 4.54823 6.70225 3.82981L5.13014 2.59349C4.31443 3.63075 3.81131 4.8995 3.58564 6.35693L5.56209 6.66296ZM6.69854 3.83449C7.29904 3.0802 8.01714 2.52691 8.85981 2.15959L8.06064 0.3262C6.909 0.828199 5.93107 1.58741 5.13384 2.58881L6.69854 3.83449ZM8.85696 2.16083C9.73302 1.78219 10.6671 1.59091 11.669 1.59091V-0.409093C10.4039 -0.409093 9.1988 -0.16572 8.06349 0.324963L8.85696 2.16083ZM11.669 1.59091C12.4296 1.59091 13.0593 1.65128 13.5689 1.76047L13.9879 -0.195132C13.3043 -0.341619 12.5278 -0.409093 11.669 -0.409093V1.59091ZM13.5689 1.76047C14.1576 1.88662 14.5316 1.9893 14.7313 2.06417L15.4335 0.191512C15.0877 0.0618377 14.5924 -0.0655966 13.9879 -0.195132L13.5689 1.76047ZM14.1597 0.742289L12.664 4.32183L14.5093 5.09294L16.0051 1.51339L14.1597 0.742289ZM13.8778 3.75071C13.6457 3.68008 13.3774 3.61363 13.0782 3.55017L12.6632 5.50664C12.9266 5.5625 13.1355 5.61537 13.2955 5.66406L13.8778 3.75071ZM13.1133 3.55826C12.7415 3.46532 12.3369 3.42614 11.9119 3.42614V5.42614C12.2199 5.42614 12.4545 5.45514 12.6282 5.49855L13.1133 3.55826ZM11.9119 3.42614C10.9053 3.42614 9.96371 3.66989 9.28161 4.33834L10.6815 5.76677C10.8516 5.6 11.197 5.42614 11.9119 5.42614V3.42614ZM9.289 4.33117C8.66798 4.92735 8.3149 5.73227 8.15322 6.64173L10.1223 6.99179C10.2334 6.36716 10.4428 5.99595 10.6741 5.77394L9.289 4.33117ZM8.15128 6.65304L4.63565 27.8363L6.60867 28.1637L10.1243 6.98048L8.15128 6.65304ZM5.62216 27H0.981534V29H5.62216V27ZM13.3469 28L12.3606 27.8356L12.1665 29H13.3469V28ZM16.6197 8.36364V7.36364H15.7725L15.6333 8.19924L16.6197 8.36364ZM21.1069 8.36364L22.0931 8.52928L22.2889 7.36364H21.1069V8.36364ZM20.5572 11.6364L19.571 11.4707L19.3752 12.6364H20.5572V11.6364ZM20.7617 11.6364V12.6364H21.3946L21.6655 12.0644L20.7617 11.6364ZM23.0373 9.01562L23.568 9.86321L23.5699 9.86198L23.0373 9.01562ZM27.0643 8.12074L26.9812 9.11728L26.995 9.11843L27.0088 9.1192L27.0643 8.12074ZM27.8569 8.21023L28.843 8.37607L29.0051 7.4127L28.0457 7.22822L27.8569 8.21023ZM27.141 12.4673L26.8125 13.4118L27.9308 13.8008L28.1271 12.6332L27.141 12.4673ZM26.2205 12.2884L26.0762 13.2779L26.0876 13.2795L26.099 13.2809L26.2205 12.2884ZM22.6538 12.7486L23.101 13.643L23.1052 13.6409L22.6538 12.7486ZM19.8796 16.456L18.8943 16.285L18.893 16.2932L19.8796 16.456ZM17.9748 28V29H18.8233L18.9614 28.1628L17.9748 28ZM14.3333 28.1644L17.6061 8.52804L15.6333 8.19924L12.3606 27.8356L14.3333 28.1644ZM16.6197 9.36364H21.1069V7.36364H16.6197V9.36364ZM20.1207 8.19799L19.571 11.4707L21.5434 11.802L22.0931 8.52928L20.1207 8.19799ZM20.5572 12.6364H20.7617V10.6364H20.5572V12.6364ZM21.6655 12.0644C22.1278 11.0883 22.7634 10.3669 23.5679 9.86321L22.5066 8.16804C21.351 8.89159 20.4695 9.91738 19.858 11.2083L21.6655 12.0644ZM23.5699 9.86198C24.4055 9.33616 25.2787 9.08239 26.2077 9.08239V7.08239C24.8868 7.08239 23.6464 7.45077 22.5047 8.16927L23.5699 9.86198ZM26.2077 9.08239C26.4402 9.08239 26.6977 9.09365 26.9812 9.11728L27.1473 7.12419C26.8173 7.09669 26.5037 7.08239 26.2077 7.08239V9.08239ZM27.0088 9.1192C27.2857 9.13458 27.503 9.16049 27.668 9.19223L28.0457 7.22822C27.7676 7.17473 27.4565 7.14099 27.1197 7.12228L27.0088 9.1192ZM26.8707 8.04439L26.1548 12.3015L28.1271 12.6332L28.843 8.37607L26.8707 8.04439ZM27.4695 11.5228C27.1683 11.4181 26.7738 11.3486 26.3421 11.2958L26.099 13.2809C26.5025 13.3303 26.7216 13.3802 26.8125 13.4118L27.4695 11.5228ZM26.3648 11.2988C25.9095 11.2324 25.4564 11.1989 25.006 11.1989V13.1989C25.3568 13.1989 25.7134 13.225 26.0762 13.2779L26.3648 11.2988ZM25.006 11.1989C24.0118 11.1989 23.0723 11.4162 22.2024 11.8563L23.1052 13.6409C23.6841 13.348 24.3128 13.1989 25.006 13.1989V11.1989ZM22.2066 11.8542C21.3549 12.28 20.6327 12.8757 20.0474 13.6326L21.6295 14.8561C22.0328 14.3345 22.5208 13.9331 23.101 13.643L22.2066 11.8542ZM20.0474 13.6326C19.4484 14.4071 19.0657 15.2974 18.8943 16.285L20.8649 16.6269C20.9833 15.9441 21.2398 15.36 21.6295 14.8561L20.0474 13.6326ZM18.893 16.2932L16.9881 27.8372L18.9614 28.1628L20.8663 16.6188L18.893 16.2932ZM17.9748 27H13.3469V29H17.9748V27ZM30.6055 27.1562L30.065 27.9976L30.069 28.0001L30.6055 27.1562ZM27.8952 23.6534L26.9476 23.9728L26.9498 23.9792L27.8952 23.6534ZM27.6396 18.2969L28.6261 18.4606L28.6263 18.4592L27.6396 18.2969ZM29.6722 12.9787L30.5029 13.5355L30.5043 13.5334L29.6722 12.9787ZM33.5075 9.39915L33.9931 10.2733L33.9947 10.2724L33.5075 9.39915ZM41.9577 8.69602L41.5972 9.62879L41.604 9.63138L41.9577 8.69602ZM44.5273 10.4858L43.7703 11.1392L44.5273 10.4858ZM45.9719 13.5795L44.9935 13.7859L44.9938 13.7872L45.9719 13.5795ZM45.9336 18.0284L44.9475 17.8624L44.9462 17.8697L44.9451 17.877L45.9336 18.0284ZM45.7163 19.4474V20.4474H46.5748L46.7047 19.5988L45.7163 19.4474ZM29.6083 19.4474L28.6208 19.2896L28.4358 20.4474H29.6083V19.4474ZM30.1069 16.3281V15.3281H29.254L29.1194 16.1703L30.1069 16.3281ZM41.766 16.3281V17.3281H42.6078L42.7513 16.4987L41.766 16.3281ZM41.6126 13.9631L40.6734 14.3067L40.6748 14.3104L41.6126 13.9631ZM40.3342 12.3139L40.8916 11.4837L40.3342 12.3139ZM35.5401 12.4162L36.0463 13.2786L36.0492 13.2769L35.5401 12.4162ZM33.5586 14.206L32.7519 13.615L33.5586 14.206ZM32.5359 16.5199L31.5515 16.3437L31.5509 16.3473L32.5359 16.5199ZM32.0117 19.5114L31.0267 19.3388L31.0248 19.3495L31.0232 19.3603L32.0117 19.5114ZM32.1396 22.5156L31.1962 22.8474L32.1396 22.5156ZM33.5714 24.2287L33.0979 25.1095L33.5714 24.2287ZM38.0458 24.4972L38.3536 25.4486L38.0458 24.4972ZM39.5927 23.6534L40.2314 24.4228L40.2329 24.4216L39.5927 23.6534ZM40.7433 22.2472L40.8573 21.2537L40.1926 21.1774L39.8685 21.7627L40.7433 22.2472ZM44.9748 22.733L45.8999 23.1127L46.4017 21.8902L45.0888 21.7395L44.9748 22.733ZM42.9165 25.7244L43.5991 26.4553L43.6028 26.4518L42.9165 25.7244ZM39.6694 27.6932L40.0142 28.6319L40.0177 28.6305L39.6694 27.6932ZM35.489 27.3835C33.6557 27.3835 32.228 27.0028 31.142 26.3124L30.069 28.0001C31.5568 28.946 33.3847 29.3835 35.489 29.3835V27.3835ZM31.1459 26.3149C30.0567 25.6152 29.2907 24.6335 28.8407 23.3276L26.9498 23.9792C27.5395 25.6903 28.5804 27.0439 30.065 27.9976L31.1459 26.3149ZM28.8429 23.334C28.3973 22.0121 28.3042 20.3999 28.6261 18.4606L26.6531 18.1331C26.2931 20.3018 26.3705 22.2607 26.9476 23.9728L28.8429 23.334ZM28.6263 18.4592C28.9381 16.5642 29.5685 14.9293 30.5028 13.5355L28.8416 12.4219C27.7305 14.0792 27.0058 15.9897 26.6528 18.1345L28.6263 18.4592ZM30.5043 13.5334C31.4432 12.1249 32.6054 11.0443 33.9931 10.2733L33.0218 8.52499C31.3414 9.45857 29.9467 10.7643 28.8402 12.424L30.5043 13.5334ZM33.9947 10.2724C35.3799 9.49946 36.9152 9.10795 38.6211 9.10795V7.10795C36.594 7.10795 34.7202 7.57725 33.0202 8.5259L33.9947 10.2724ZM38.6211 9.10795C39.7219 9.10795 40.7103 9.28592 41.5972 9.62876L42.3183 7.76328C41.1768 7.32203 39.9407 7.10795 38.6211 7.10795V9.10795ZM41.604 9.63138C42.4647 9.95683 43.1819 10.4575 43.7703 11.1392L45.2843 9.83238C44.4751 8.89482 43.4792 8.20226 42.3115 7.76066L41.604 9.63138ZM43.7703 11.1392C44.3389 11.7979 44.7573 12.6659 44.9935 13.7859L46.9504 13.3732C46.6582 11.9875 46.1135 10.793 45.2843 9.83238L43.7703 11.1392ZM44.9938 13.7872C45.2241 14.8721 45.2236 16.2217 44.9475 17.8624L46.9197 18.1944C47.2231 16.3919 47.2482 14.7756 46.9501 13.3718L44.9938 13.7872ZM44.9451 17.877L44.7278 19.2961L46.7047 19.5988L46.9221 18.1798L44.9451 17.877ZM45.7163 18.4474H29.6083V20.4474H45.7163V18.4474ZM30.5958 19.6053L31.0944 16.486L29.1194 16.1703L28.6208 19.2896L30.5958 19.6053ZM30.1069 17.3281H41.766V15.3281H30.1069V17.3281ZM42.7513 16.4987C42.9282 15.4769 42.8795 14.5046 42.5503 13.6158L40.6748 14.3104C40.857 14.8022 40.9106 15.4066 40.7806 16.1576L42.7513 16.4987ZM42.5517 13.6195C42.2262 12.7297 41.6702 12.0065 40.8916 11.4837L39.7767 13.1441C40.1913 13.4225 40.4876 13.7987 40.6734 14.3067L42.5517 13.6195ZM40.8916 11.4837C40.0938 10.948 39.1415 10.7131 38.0969 10.7131V12.7131C38.8422 12.7131 39.3814 12.8787 39.7767 13.1441L40.8916 11.4837ZM38.0969 10.7131C37.0041 10.7131 35.9763 10.9965 35.0311 11.5555L36.0492 13.2769C36.6892 12.8984 37.3659 12.7131 38.0969 12.7131V10.7131ZM35.0339 11.5538C34.1323 12.083 33.3695 12.7719 32.7519 13.615L34.3653 14.7969C34.8216 14.1741 35.3798 13.6698 36.0463 13.2786L35.0339 11.5538ZM32.7519 13.615C32.1344 14.4579 31.7259 15.369 31.5515 16.3437L33.5202 16.696C33.6356 16.0515 33.9089 15.42 34.3653 14.7969L32.7519 13.615ZM31.5509 16.3473L31.0267 19.3388L32.9967 19.6839L33.5209 16.6925L31.5509 16.3473ZM31.0232 19.3603C30.8225 20.6739 30.8483 21.8579 31.1962 22.8474L33.0829 22.1839C32.8854 21.6222 32.8259 20.8034 33.0002 19.6624L31.0232 19.3603ZM31.1962 22.8474C31.546 23.8422 32.182 24.6172 33.0979 25.1095L34.0448 23.3479C33.5971 23.1072 33.2786 22.7402 33.0829 22.1839L31.1962 22.8474ZM33.0979 25.1095C33.9667 25.5765 35.0031 25.7784 36.1538 25.7784V23.7784C35.2249 23.7784 34.5397 23.6139 34.0448 23.3479L33.0979 25.1095ZM36.1538 25.7784C36.9278 25.7784 37.6636 25.6719 38.3536 25.4486L37.738 23.5457C37.269 23.6975 36.7434 23.7784 36.1538 23.7784V25.7784ZM38.3536 25.4486C39.0494 25.2235 39.6783 24.882 40.2314 24.4228L38.9539 22.884C38.6036 23.1748 38.2013 23.3958 37.738 23.5457L38.3536 25.4486ZM40.2329 24.4216C40.7935 23.9544 41.2547 23.3877 41.618 22.7317L39.8685 21.7627C39.6182 22.2146 39.3123 22.5854 38.9525 22.8852L40.2329 24.4216ZM40.6292 23.2406L44.8607 23.7264L45.0888 21.7395L40.8573 21.2537L40.6292 23.2406ZM44.0497 22.3532C43.6353 23.3629 43.0309 24.2417 42.2303 24.997L43.6028 26.4518C44.609 25.5026 45.3768 24.3871 45.8999 23.1127L44.0497 22.3532ZM42.234 24.9936C41.4355 25.7394 40.4695 26.329 39.321 26.7558L40.0177 28.6305C41.392 28.1198 42.5908 27.397 43.5991 26.4553L42.234 24.9936ZM39.3246 26.7545C38.1973 27.1686 36.9228 27.3835 35.489 27.3835V29.3835C37.1234 29.3835 38.6358 29.1382 40.0142 28.6319L39.3246 26.7545ZM51.9805 27.1562L51.44 27.9976L51.444 28.0001L51.9805 27.1562ZM49.2702 23.6534L48.3226 23.9728L48.3248 23.9792L49.2702 23.6534ZM49.0146 18.2969L50.0011 18.4606L50.0013 18.4592L49.0146 18.2969ZM51.0472 12.9787L51.8779 13.5355L51.8793 13.5334L51.0472 12.9787ZM54.8825 9.39915L55.3681 10.2733L55.3697 10.2724L54.8825 9.39915ZM63.3327 8.69602L62.9722 9.62879L62.979 9.63138L63.3327 8.69602ZM65.9023 10.4858L65.1453 11.1392L65.9023 10.4858ZM67.3469 13.5795L66.3685 13.7859L66.3688 13.7872L67.3469 13.5795ZM67.3086 18.0284L66.3225 17.8624L66.3212 17.8697L66.3201 17.877L67.3086 18.0284ZM67.0913 19.4474V20.4474H67.9498L68.0797 19.5988L67.0913 19.4474ZM50.9833 19.4474L49.9958 19.2896L49.8108 20.4474H50.9833V19.4474ZM51.4819 16.3281V15.3281H50.629L50.4944 16.1703L51.4819 16.3281ZM63.141 16.3281V17.3281H63.9828L64.1263 16.4987L63.141 16.3281ZM62.9876 13.9631L62.0484 14.3067L62.0498 14.3104L62.9876 13.9631ZM61.7092 12.3139L62.2666 11.4837L61.7092 12.3139ZM56.9151 12.4162L57.4213 13.2786L57.4242 13.2769L56.9151 12.4162ZM54.9336 14.206L54.1269 13.615L54.9336 14.206ZM53.9109 16.5199L52.9265 16.3437L52.9259 16.3473L53.9109 16.5199ZM53.3867 19.5114L52.4017 19.3388L52.3998 19.3495L52.3982 19.3603L53.3867 19.5114ZM53.5146 22.5156L52.5712 22.8474L53.5146 22.5156ZM54.9464 24.2287L54.4729 25.1095L54.9464 24.2287ZM59.4208 24.4972L59.7286 25.4486L59.4208 24.4972ZM60.9677 23.6534L61.6064 24.4228L61.6079 24.4216L60.9677 23.6534ZM62.1183 22.2472L62.2323 21.2537L61.5676 21.1774L61.2435 21.7627L62.1183 22.2472ZM66.3498 22.733L67.2749 23.1127L67.7766 21.8902L66.4638 21.7395L66.3498 22.733ZM64.2915 25.7244L64.9741 26.4553L64.9778 26.4518L64.2915 25.7244ZM61.0444 27.6932L61.3892 28.6319L61.3927 28.6305L61.0444 27.6932ZM56.864 27.3835C55.0307 27.3835 53.603 27.0028 52.517 26.3124L51.444 28.0001C52.9318 28.946 54.7597 29.3835 56.864 29.3835V27.3835ZM52.5209 26.3149C51.4317 25.6152 50.6657 24.6335 50.2157 23.3276L48.3248 23.9792C48.9145 25.6903 49.9554 27.0439 51.44 27.9976L52.5209 26.3149ZM50.2179 23.334C49.7723 22.0121 49.6792 20.3999 50.0011 18.4606L48.0281 18.1331C47.6681 20.3018 47.7455 22.2607 48.3226 23.9728L50.2179 23.334ZM50.0013 18.4592C50.3131 16.5642 50.9435 14.9293 51.8778 13.5355L50.2166 12.4219C49.1055 14.0792 48.3808 15.9897 48.0278 18.1345L50.0013 18.4592ZM51.8793 13.5334C52.8182 12.1249 53.9804 11.0443 55.3681 10.2733L54.3968 8.52499C52.7164 9.45857 51.3217 10.7643 50.2152 12.424L51.8793 13.5334ZM55.3697 10.2724C56.7549 9.49946 58.2902 9.10795 59.9961 9.10795V7.10795C57.969 7.10795 56.0952 7.57725 54.3952 8.5259L55.3697 10.2724ZM59.9961 9.10795C61.0969 9.10795 62.0853 9.28592 62.9722 9.62876L63.6933 7.76328C62.5518 7.32203 61.3157 7.10795 59.9961 7.10795V9.10795ZM62.979 9.63138C63.8397 9.95683 64.5569 10.4575 65.1453 11.1392L66.6593 9.83238C65.8501 8.89482 64.8542 8.20226 63.6864 7.76066L62.979 9.63138ZM65.1453 11.1392C65.7139 11.7979 66.1323 12.6659 66.3685 13.7859L68.3254 13.3732C68.0332 11.9875 67.4885 10.793 66.6593 9.83238L65.1453 11.1392ZM66.3688 13.7872C66.5991 14.8721 66.5986 16.2217 66.3225 17.8624L68.2947 18.1944C68.5981 16.3919 68.6232 14.7756 68.3251 13.3718L66.3688 13.7872ZM66.3201 17.877L66.1028 19.2961L68.0797 19.5988L68.2971 18.1798L66.3201 17.877ZM67.0913 18.4474H50.9833V20.4474H67.0913V18.4474ZM51.9708 19.6053L52.4694 16.486L50.4944 16.1703L49.9958 19.2896L51.9708 19.6053ZM51.4819 17.3281H63.141V15.3281H51.4819V17.3281ZM64.1263 16.4987C64.3032 15.4769 64.2545 14.5046 63.9253 13.6158L62.0498 14.3104C62.232 14.8022 62.2856 15.4066 62.1556 16.1576L64.1263 16.4987ZM63.9267 13.6195C63.6012 12.7297 63.0452 12.0065 62.2666 11.4837L61.1517 13.1441C61.5663 13.4225 61.8626 13.7987 62.0484 14.3067L63.9267 13.6195ZM62.2666 11.4837C61.4688 10.948 60.5165 10.7131 59.4719 10.7131V12.7131C60.2172 12.7131 60.7564 12.8787 61.1517 13.1441L62.2666 11.4837ZM59.4719 10.7131C58.3791 10.7131 57.3513 10.9965 56.4061 11.5555L57.4242 13.2769C58.0642 12.8984 58.7409 12.7131 59.4719 12.7131V10.7131ZM56.4089 11.5538C55.5073 12.083 54.7445 12.7719 54.1269 13.615L55.7403 14.7969C56.1966 14.1741 56.7548 13.6698 57.4213 13.2786L56.4089 11.5538ZM54.1269 13.615C53.5094 14.4579 53.1009 15.369 52.9265 16.3437L54.8952 16.696C55.0106 16.0515 55.2839 15.42 55.7403 14.7969L54.1269 13.615ZM52.9259 16.3473L52.4017 19.3388L54.3717 19.6839L54.8959 16.6925L52.9259 16.3473ZM52.3982 19.3603C52.1975 20.6739 52.2233 21.8579 52.5712 22.8474L54.4579 22.1839C54.2604 21.6222 54.2009 20.8034 54.3752 19.6624L52.3982 19.3603ZM52.5712 22.8474C52.921 23.8422 53.557 24.6172 54.4729 25.1095L55.4198 23.3479C54.9721 23.1072 54.6536 22.7402 54.4579 22.1839L52.5712 22.8474ZM54.4729 25.1095C55.3417 25.5765 56.3781 25.7784 57.5288 25.7784V23.7784C56.5999 23.7784 55.9147 23.6139 55.4198 23.3479L54.4729 25.1095ZM57.5288 25.7784C58.3028 25.7784 59.0386 25.6719 59.7286 25.4486L59.113 23.5457C58.644 23.6975 58.1184 23.7784 57.5288 23.7784V25.7784ZM59.7286 25.4486C60.4244 25.2235 61.0533 24.882 61.6064 24.4228L60.3289 22.884C59.9786 23.1748 59.5763 23.3958 59.113 23.5457L59.7286 25.4486ZM61.6079 24.4216C62.1685 23.9544 62.6297 23.3877 62.993 22.7317L61.2435 21.7627C60.9932 22.2146 60.6873 22.5854 60.3275 22.8852L61.6079 24.4216ZM62.0042 23.2406L66.2357 23.7264L66.4638 21.7395L62.2323 21.2537L62.0042 23.2406ZM65.4247 22.3532C65.0103 23.3629 64.4059 24.2417 63.6053 24.997L64.9778 26.4518C65.984 25.5026 66.7518 24.3871 67.2749 23.1127L65.4247 22.3532ZM63.609 24.9936C62.8105 25.7394 61.8445 26.329 60.696 26.7558L61.3927 28.6305C62.767 28.1198 63.9658 27.397 64.9741 26.4553L63.609 24.9936ZM60.6996 26.7545C59.5723 27.1686 58.2978 27.3835 56.864 27.3835V29.3835C58.4984 29.3835 60.0108 29.1382 61.3892 28.6319L60.6996 26.7545ZM78.5714 1.81818L79.5579 1.98196L79.7511 0.818181H78.5714V1.81818ZM74.2248 28V29H75.0725L75.2113 28.1638L74.2248 28ZM69.5969 28L68.6105 27.8362L68.4172 29H69.5969V28ZM73.9435 1.81818V0.818181H73.0959L72.957 1.65441L73.9435 1.81818ZM77.5849 1.65441L73.2383 27.8362L75.2113 28.1638L79.5579 1.98196L77.5849 1.65441ZM74.2248 27H69.5969V29H74.2248V27ZM70.5834 28.1638L74.93 1.98196L72.957 1.65441L68.6105 27.8362L70.5834 28.1638ZM73.9435 2.81818H78.5714V0.818181H73.9435V2.81818ZM81.3359 27.7315L80.8954 28.6293L80.9021 28.6325L81.3359 27.7315ZM79.3033 25.7372L78.4036 26.1739L78.4071 26.1809L79.3033 25.7372ZM78.9837 22.4901L77.9977 22.3232L77.9971 22.3267L78.9837 22.4901ZM80.0575 19.7415L79.2541 19.146L79.2496 19.1522L80.0575 19.7415ZM82.0263 18.0028L82.5152 18.8752L82.5183 18.8734L82.0263 18.0028ZM84.5831 17.0057L84.3511 16.033L84.349 16.0335L84.5831 17.0057ZM87.4212 16.5199L87.3202 15.525L87.3156 15.5255L87.4212 16.5199ZM90.272 16.1875L90.1338 15.1971L90.1322 15.1973L90.272 16.1875ZM91.9212 15.7273L92.4085 16.6005L92.4162 16.5962L92.4238 16.5918L91.9212 15.7273ZM92.5859 14.7557L93.5707 14.9295L93.5859 14.8432V14.7557H92.5859ZM92.5859 14.679L91.5984 14.5217L91.5859 14.5998V14.679H92.5859ZM92.1257 12.4418L91.3716 13.0985L92.1257 12.4418ZM86.9865 12.3906L87.5282 13.2312V13.2312L86.9865 12.3906ZM85.3118 14.142L85.167 15.1315L85.8714 15.2346L86.1994 14.6027L85.3118 14.142ZM81.1186 13.5284L80.2043 13.1235L79.6712 14.3272L80.9738 14.5179L81.1186 13.5284ZM83.2919 10.5369L83.9484 11.2912L83.9524 11.2878L83.2919 10.5369ZM86.4751 8.72159L86.7914 9.67028L86.7954 9.66893L86.4751 8.72159ZM93.0973 8.44034L92.8569 9.41103L92.8591 9.41155L93.0973 8.44034ZM95.4879 9.53977L94.8926 10.3434L94.9039 10.3515L95.4879 9.53977ZM97.022 11.598L96.0849 11.9471L96.088 11.9551L97.022 11.598ZM97.1882 14.858L96.2023 14.6904L96.2018 14.6939L97.1882 14.858ZM95.0021 28V29H95.8495L95.9886 28.1641L95.0021 28ZM90.5533 28L89.5675 27.8318L89.3682 29H90.5533V28ZM91.0135 25.3026L91.9993 25.4707L92.1986 24.3026H91.0135V25.3026ZM90.8601 25.3026V24.3026H90.3272L90.03 24.7449L90.8601 25.3026ZM89.4283 26.8366L90.0516 27.6187L90.0584 27.6131L89.4283 26.8366ZM87.3317 27.9744L87.6598 28.9191L87.6686 28.916L87.3317 27.9744ZM88.8402 24.446L89.2833 25.3425L89.2915 25.3384L88.8402 24.446ZM90.6683 22.9631L89.879 22.3491L90.6683 22.9631ZM91.5632 20.956L90.5767 20.7924L90.5765 20.7934L91.5632 20.956ZM91.9467 18.642L92.9333 18.8056L93.3223 16.4585L91.3733 17.8228L91.9467 18.642ZM91.1541 18.9744L90.8794 18.0129H90.8794L91.1541 18.9744ZM89.9524 19.2429L89.7819 18.2575L89.7786 18.2581L89.9524 19.2429ZM87.5618 19.6009L87.6932 20.5922L87.6994 20.5913L87.5618 19.6009ZM85.6186 20.0611L85.278 19.1209L85.2735 19.1225L85.6186 20.0611ZM83.4709 22.4134L84.4581 22.5729L84.4588 22.5686L83.4709 22.4134ZM84.0717 24.3438L83.4351 25.115L83.4425 25.121L84.0717 24.3438ZM84.5831 27.3963C83.4568 27.3963 82.5286 27.1959 81.7698 26.8305L80.9021 28.6325C81.9842 29.1535 83.2207 29.3963 84.5831 29.3963V27.3963ZM81.7765 26.8338C81.0438 26.4743 80.5316 25.9643 80.1994 25.2935L78.4071 26.1809C78.9443 27.2658 79.7871 28.0854 80.8954 28.6293L81.7765 26.8338ZM80.2029 25.3005C79.8931 24.6624 79.7798 23.8039 79.9702 22.6534L77.9971 22.3267C77.7614 23.7501 77.8612 25.0564 78.4037 26.1739L80.2029 25.3005ZM79.9696 22.6569C80.1377 21.6639 80.4485 20.9025 80.8654 20.3308L79.2496 19.1522C78.6098 20.0294 78.2046 21.1003 77.9977 22.3232L79.9696 22.6569ZM80.8609 20.3369C81.315 19.7243 81.8646 19.2398 82.5152 18.8752L81.5374 17.1305C80.6368 17.6352 79.8739 18.3098 79.2541 19.146L80.8609 20.3369ZM82.5183 18.8734C83.2175 18.4782 83.9824 18.1789 84.8172 17.9779L84.349 16.0335C83.3429 16.2757 82.4032 16.6411 81.5342 17.1323L82.5183 18.8734ZM84.8151 17.9784C85.7019 17.7669 86.6057 17.6121 87.5268 17.5143L87.3156 15.5255C86.3105 15.6322 85.3223 15.8013 84.3511 16.033L84.8151 17.9784ZM87.5221 17.5148C88.7044 17.3948 89.6691 17.2825 90.4118 17.1777L90.1322 15.1973C89.4261 15.297 88.4902 15.4063 87.3202 15.525L87.5221 17.5148ZM90.4102 17.1779C91.1868 17.0695 91.8811 16.8948 92.4085 16.6005L91.4338 14.8541C91.2282 14.9688 90.8232 15.1009 90.1338 15.1971L90.4102 17.1779ZM92.4238 16.5918C93.0566 16.2238 93.4453 15.6404 93.5707 14.9295L91.6012 14.5819C91.5732 14.7403 91.5186 14.8046 91.4185 14.8628L92.4238 16.5918ZM93.5859 14.7557V14.679H91.5859V14.7557H93.5859ZM93.5735 14.8363C93.7544 13.7007 93.6023 12.6146 92.8798 11.785L91.3716 13.0985C91.5695 13.3258 91.7243 13.7311 91.5984 14.5217L93.5735 14.8363ZM92.8798 11.785C92.1476 10.9443 91.0334 10.6491 89.8246 10.6491V12.6491C90.7635 12.6491 91.1834 12.8824 91.3716 13.0985L92.8798 11.785ZM89.8246 10.6491C88.5523 10.6491 87.4073 10.9298 86.4448 11.5501L87.5282 13.2312C88.0998 12.8628 88.8468 12.6491 89.8246 12.6491V10.6491ZM86.4448 11.5501C85.561 12.1196 84.8687 12.8249 84.4242 13.6814L86.1994 14.6027C86.4537 14.1126 86.8779 13.6503 87.5282 13.2312L86.4448 11.5501ZM85.4566 13.1526L81.2634 12.5389L80.9738 14.5179L85.167 15.1315L85.4566 13.1526ZM82.033 13.9333C82.5062 12.8646 83.146 11.9896 83.9484 11.2912L82.6354 9.78263C81.5969 10.6865 80.7878 11.8058 80.2043 13.1235L82.033 13.9333ZM83.9524 11.2878C84.7691 10.5694 85.7122 10.03 86.7914 9.67027L86.1589 7.77291C84.8347 8.21431 83.6556 8.88517 82.6314 9.78608L83.9524 11.2878ZM86.7954 9.66893C87.8951 9.29721 89.0774 9.10795 90.3487 9.10795V7.10795C88.8757 7.10795 87.4757 7.32779 86.1549 7.77425L86.7954 9.66893ZM90.3487 9.10795C91.2066 9.10795 92.042 9.20923 92.8569 9.41102L93.3377 7.46966C92.3628 7.22827 91.3659 7.10795 90.3487 7.10795V9.10795ZM92.8591 9.41155C93.6443 9.60415 94.3176 9.91734 94.8927 10.3433L96.0832 8.73621C95.2776 8.13948 94.3571 7.71971 93.3355 7.46913L92.8591 9.41155ZM94.9039 10.3515C95.4292 10.7295 95.8247 11.2485 96.0849 11.9471L97.9591 11.2489C97.5716 10.2089 96.9444 9.35575 96.072 8.72805L94.9039 10.3515ZM96.088 11.9551C96.3351 12.6014 96.4059 13.4925 96.2023 14.6904L98.1741 15.0255C98.4137 13.6155 98.3737 12.3333 97.9561 11.2409L96.088 11.9551ZM96.2018 14.6939L94.0157 27.8359L95.9886 28.1641L98.1747 15.022L96.2018 14.6939ZM95.0021 27H90.5533V29H95.0021V27ZM91.539 28.1682L91.9993 25.4707L90.0277 25.1344L89.5675 27.8318L91.539 28.1682ZM91.0135 24.3026H90.8601V26.3026H91.0135V24.3026ZM90.03 24.7449C89.7267 25.1964 89.3205 25.6362 88.7981 26.0602L90.0584 27.6131C90.7121 27.0826 91.2606 26.4996 91.6901 25.8602L90.03 24.7449ZM88.805 26.0547C88.3143 26.4458 87.7154 26.775 86.9947 27.0329L87.6686 28.916C88.5672 28.5943 89.3661 28.165 90.0516 27.6186L88.805 26.0547ZM87.0035 27.0298C86.3176 27.2681 85.5151 27.3963 84.5831 27.3963V29.3963C85.6965 29.3963 86.7265 29.2433 87.6598 28.9191L87.0035 27.0298ZM86.3345 25.9957C87.3981 25.9957 88.3879 25.7851 89.2833 25.3425L88.3971 23.5495C87.8096 23.8399 87.1289 23.9957 86.3345 23.9957V25.9957ZM89.2915 25.3384C90.1556 24.9014 90.8835 24.3152 91.4577 23.577L89.879 22.3491C89.4986 22.8382 89.0078 23.2407 88.3889 23.5537L89.2915 25.3384ZM91.4577 23.577C92.0311 22.8397 92.4019 22.0172 92.5499 21.1185L90.5765 20.7934C90.4859 21.3436 90.2601 21.8592 89.879 22.3491L91.4577 23.577ZM92.5498 21.1195L92.9333 18.8056L90.9602 18.4785L90.5767 20.7924L92.5498 21.1195ZM91.3733 17.8228C91.3389 17.8469 91.2009 17.921 90.8794 18.0129L91.4288 19.936C91.8232 19.8233 92.2137 19.6758 92.5202 19.4613L91.3733 17.8228ZM90.8794 18.0129C90.5619 18.1036 90.1969 18.1857 89.7819 18.2575L90.123 20.2282C90.5943 20.1467 91.0304 20.0498 91.4288 19.936L90.8794 18.0129ZM89.7786 18.2581C89.3554 18.3328 88.9367 18.3991 88.5226 18.4571L88.7999 20.4378C89.238 20.3764 89.6802 20.3064 90.1262 20.2277L89.7786 18.2581ZM88.5226 18.4571C88.0967 18.5167 87.7306 18.5678 87.4242 18.6104L87.6994 20.5913C88.0066 20.5487 88.3735 20.4975 88.7999 20.4378L88.5226 18.4571ZM87.4304 18.6095C86.6614 18.7114 85.9424 18.8801 85.278 19.1209L85.9593 21.0013C86.4709 20.8159 87.0474 20.6778 87.6932 20.5922L87.4304 18.6095ZM85.2735 19.1225C84.5768 19.3787 83.9662 19.7496 83.4669 20.2489L84.8811 21.6631C85.1488 21.3953 85.5013 21.1696 85.9637 20.9997L85.2735 19.1225ZM83.4669 20.2489C82.922 20.7937 82.6049 21.4827 82.483 22.2581L84.4588 22.5686C84.5244 22.1508 84.676 21.8682 84.8811 21.6631L83.4669 20.2489ZM82.4837 22.2538C82.3057 23.3548 82.5586 24.3915 83.4352 25.115L84.7083 23.5725C84.511 23.4096 84.3633 23.1594 84.4581 22.5729L82.4837 22.2538ZM83.4425 25.121C84.2176 25.7484 85.2254 25.9957 86.3345 25.9957V23.9957C85.5004 23.9957 84.9997 23.8084 84.7009 23.5665L83.4425 25.121ZM106.201 16.4943L105.217 16.317L105.215 16.3245L105.214 16.3321L106.201 16.4943ZM104.309 28V29H105.158L105.296 28.1623L104.309 28ZM99.6683 28L98.6819 27.8356L98.4879 29H99.6683V28ZM102.941 8.36364V7.36364H102.094L101.955 8.19924L102.941 8.36364ZM107.377 8.36364L108.363 8.52987L108.56 7.36364H107.377V8.36364ZM106.815 11.7003L105.829 11.534L105.632 12.7003H106.815V11.7003ZM107.058 11.7003V12.7003H107.645L107.931 12.1876L107.058 11.7003ZM116.888 8.97727L116.352 9.82128L116.358 9.82483L116.888 8.97727ZM118.832 11.4957L117.887 11.8228L117.887 11.8251L118.832 11.4957ZM119.011 15.4972L118.025 15.331L118.024 15.3318L119.011 15.4972ZM116.914 28V29H117.76L117.9 28.1654L116.914 28ZM112.286 28L111.3 27.8363L111.107 29H112.286V28ZM114.242 16.2131L113.256 16.0455L113.256 16.0494L114.242 16.2131ZM113.744 13.1449L112.935 13.7331L112.943 13.7434L113.744 13.1449ZM108.873 12.5568L109.329 13.4468L109.338 13.4422L108.873 12.5568ZM107.147 14.0781L106.33 13.5018L106.325 13.5089L107.147 14.0781ZM105.214 16.3321L103.322 27.8377L105.296 28.1623L107.188 16.6566L105.214 16.3321ZM104.309 27H99.6683V29H104.309V27ZM100.655 28.1644L103.927 8.52804L101.955 8.19924L98.6819 27.8356L100.655 28.1644ZM102.941 9.36364H107.377V7.36364H102.941V9.36364ZM106.391 8.1974L105.829 11.534L107.801 11.8665L108.363 8.52987L106.391 8.1974ZM106.815 12.7003H107.058V10.7003H106.815V12.7003ZM107.931 12.1876C108.456 11.2473 109.188 10.5022 110.145 9.94284L109.135 8.21625C107.876 8.9523 106.887 9.95438 106.184 11.2129L107.931 12.1876ZM110.145 9.94284C111.078 9.39726 112.19 9.10795 113.513 9.10795V7.10795C111.888 7.10795 110.418 7.46637 109.135 8.21625L110.145 9.94284ZM113.513 9.10795C114.707 9.10795 115.635 9.36544 116.352 9.82126L117.425 8.13329C116.318 7.43001 114.996 7.10795 113.513 7.10795V9.10795ZM116.358 9.82483C117.059 10.2636 117.571 10.9099 117.887 11.8228L119.777 11.1686C119.326 9.86565 118.542 8.83298 117.419 8.12972L116.358 9.82483ZM117.887 11.8251C118.199 12.718 118.271 13.8709 118.025 15.331L119.997 15.6633C120.279 13.987 120.231 12.4724 119.776 11.1664L117.887 11.8251ZM118.024 15.3318L115.928 27.8346L117.9 28.1654L119.997 15.6625L118.024 15.3318ZM116.914 27H112.286V29H116.914V27ZM113.273 28.1637L115.229 16.3768L113.256 16.0494L111.3 27.8363L113.273 28.1637ZM115.228 16.3806C115.476 14.9243 115.322 13.5871 114.545 12.5464L112.943 13.7434C113.273 14.1856 113.452 14.8939 113.256 16.0455L115.228 16.3806ZM114.552 12.5567C113.763 11.472 112.533 11.0199 111.11 11.0199V13.0199C112.108 13.0199 112.633 13.3178 112.935 13.7331L114.552 12.5567ZM111.11 11.0199C110.147 11.0199 109.241 11.2343 108.408 11.6714L109.338 13.4422C109.869 13.1634 110.454 13.0199 111.11 13.0199V11.0199ZM108.417 11.6669C107.582 12.0947 106.886 12.7132 106.33 13.5019L107.964 14.6544C108.346 14.1135 108.8 13.7178 109.329 13.4468L108.417 11.6669ZM106.325 13.5089C105.769 14.3113 105.408 15.2565 105.217 16.317L107.185 16.6716C107.335 15.8401 107.604 15.1745 107.969 14.6473L106.325 13.5089ZM125.275 27.0923L124.711 27.9183L125.275 27.0923ZM122.629 23.5256L121.677 23.8338L121.679 23.8402L122.629 23.5256ZM122.386 18.2585L123.372 18.4236L123.373 18.4188L122.386 18.2585ZM124.393 12.9787L123.561 12.424L123.56 12.4251L124.393 12.9787ZM128.254 9.39915L128.735 10.2756L128.739 10.2735L128.254 9.39915ZM137.535 8.99006L137.072 9.87632L137.08 9.88043L137.535 8.99006ZM140.066 11.4574L139.179 11.9188L139.183 11.9272L140.066 11.4574ZM140.718 15.1648V16.1648H141.632L141.714 15.2548L140.718 15.1648ZM136.282 15.1648L135.282 15.1828L135.3 16.1648H136.282V15.1648ZM135.4 12.7997L134.654 13.4659L134.659 13.4709L135.4 12.7997ZM130.261 12.608L130.792 13.455L130.799 13.4509L130.261 12.608ZM128.228 14.7812L129.091 15.2866V15.2866L128.228 14.7812ZM127.077 18.1818L128.064 18.3452L128.065 18.3411L127.077 18.1818ZM127.09 21.6335L126.118 21.8659L126.12 21.8761L127.09 21.6335ZM128.381 23.8452L127.74 24.6125L127.746 24.6173L127.752 24.6219L128.381 23.8452ZM132.677 24.2287L133.076 25.1458L133.087 25.1409L132.677 24.2287ZM134.224 23.0909L133.485 22.4163L133.479 22.4234L134.224 23.0909ZM135.285 21.2884V20.2884H134.583L134.344 20.9484L135.285 21.2884ZM139.708 21.2884L140.678 21.5323L140.991 20.2884H139.708V21.2884ZM137.842 24.983L137.073 24.3428L137.073 24.3434L137.842 24.983ZM134.543 27.4886L134.957 28.399L134.962 28.3968L134.543 27.4886ZM130.107 27.3835C128.291 27.3835 126.892 26.9855 125.839 26.2663L124.711 27.9183C126.18 28.9207 128.003 29.3835 130.107 29.3835V27.3835ZM125.839 26.2663C124.767 25.5352 124.015 24.5303 123.578 23.2109L121.679 23.8402C122.248 25.555 123.26 26.9279 124.711 27.9183L125.839 26.2663ZM123.58 23.2173C123.146 21.8785 123.059 20.2907 123.372 18.4236L121.399 18.0934C121.047 20.198 121.122 22.1215 121.677 23.8338L123.58 23.2173ZM123.373 18.4188C123.676 16.5505 124.298 14.9275 125.226 13.5323L123.56 12.4251C122.459 14.081 121.743 15.9779 121.399 18.0982L123.373 18.4188ZM125.225 13.5334C126.162 12.1274 127.331 11.0471 128.735 10.2756L127.772 8.52273C126.074 9.45576 124.669 10.7618 123.561 12.424L125.225 13.5334ZM128.739 10.2735C130.13 9.50172 131.695 9.10795 133.457 9.10795V7.10795C131.383 7.10795 129.48 7.57498 127.768 8.52476L128.739 10.2735ZM133.457 9.10795C134.929 9.10795 136.121 9.37964 137.072 9.87628L137.998 8.10383C136.698 7.42434 135.171 7.10795 133.457 7.10795V9.10795ZM137.08 9.88043C138.04 10.3714 138.727 11.0493 139.179 11.9187L140.953 10.996C140.297 9.73483 139.297 8.76782 137.99 8.09968L137.08 9.88043ZM139.183 11.9272C139.639 12.7825 139.836 13.8169 139.722 15.0748L141.714 15.2548C141.856 13.6831 141.619 12.2459 140.949 10.9875L139.183 11.9272ZM140.718 14.1648H136.282V16.1648H140.718V14.1648ZM137.282 15.1468C137.261 13.988 136.893 12.959 136.141 12.1285L134.659 13.4709C135.049 13.9018 135.269 14.4495 135.282 15.1828L137.282 15.1468ZM136.146 12.1335C135.334 11.2254 134.193 10.8409 132.894 10.8409V12.8409C133.795 12.8409 134.323 13.0957 134.654 13.4659L136.146 12.1335ZM132.894 10.8409C131.75 10.8409 130.685 11.1506 129.723 11.765L130.799 13.4509C131.438 13.0426 132.129 12.8409 132.894 12.8409V10.8409ZM129.729 11.761C128.771 12.3621 127.987 13.2132 127.365 14.2759L129.091 15.2866C129.577 14.4573 130.148 13.8595 130.792 13.4549L129.729 11.761ZM127.365 14.2759C126.736 15.3493 126.319 16.6056 126.09 18.0226L128.065 18.3411C128.262 17.116 128.612 16.1052 129.091 15.2866L127.365 14.2759ZM126.091 18.0184C125.855 19.4425 125.847 20.7347 126.118 21.8659L128.063 21.4011C127.873 20.6062 127.857 19.5973 128.064 18.3452L126.091 18.0184ZM126.12 21.8761C126.399 22.9912 126.923 23.93 127.74 24.6125L129.023 23.0778C128.595 22.7205 128.259 22.185 128.06 21.391L126.12 21.8761ZM127.752 24.6219C128.592 25.3034 129.624 25.6122 130.772 25.6122V23.6122C129.994 23.6122 129.432 23.4096 129.011 23.0684L127.752 24.6219ZM130.772 25.6122C131.582 25.6122 132.354 25.4596 133.076 25.1458L132.278 23.3116C131.824 23.5092 131.325 23.6122 130.772 23.6122V25.6122ZM133.087 25.1409C133.806 24.8177 134.435 24.3536 134.968 23.7585L133.479 22.4234C133.126 22.8168 132.724 23.1113 132.267 23.3165L133.087 25.1409ZM134.962 23.7655C135.513 23.1627 135.93 22.4442 136.225 21.6283L134.344 20.9484C134.128 21.5473 133.838 22.0305 133.486 22.4163L134.962 23.7655ZM135.285 22.2884H139.708V20.2884H135.285V22.2884ZM138.738 21.0444C138.425 22.2918 137.87 23.3871 137.073 24.3428L138.61 25.6231C139.603 24.4311 140.293 23.0633 140.678 21.5323L138.738 21.0444ZM137.073 24.3434C136.286 25.2893 135.308 26.035 134.125 26.5805L134.962 28.3968C136.404 27.7321 137.625 26.8073 138.61 25.6225L137.073 24.3434ZM134.13 26.5783C132.964 27.108 131.629 27.3835 130.107 27.3835V29.3835C131.875 29.3835 133.498 29.0624 134.957 28.399L134.13 26.5783ZM146.129 27.1562L145.588 27.9976L145.592 28.0001L146.129 27.1562ZM143.419 23.6534L142.471 23.9728L142.473 23.9792L143.419 23.6534ZM143.163 18.2969L144.15 18.4606L144.15 18.4592L143.163 18.2969ZM145.196 12.9787L146.026 13.5355L146.028 13.5334L145.196 12.9787ZM149.031 9.39915L149.517 10.2733L149.518 10.2724L149.031 9.39915ZM157.481 8.69602L157.121 9.62879L157.127 9.63138L157.481 8.69602ZM160.051 10.4858L159.294 11.1392L160.051 10.4858ZM161.495 13.5795L160.517 13.7859L160.517 13.7872L161.495 13.5795ZM161.457 18.0284L160.471 17.8624L160.47 17.8697L160.469 17.877L161.457 18.0284ZM161.24 19.4474V20.4474H162.098L162.228 19.5988L161.24 19.4474ZM145.132 19.4474L144.144 19.2896L143.959 20.4474H145.132V19.4474ZM145.63 16.3281V15.3281H144.777L144.643 16.1703L145.63 16.3281ZM157.289 16.3281V17.3281H158.131L158.275 16.4987L157.289 16.3281ZM157.136 13.9631L156.197 14.3067L156.198 14.3104L157.136 13.9631ZM155.858 12.3139L156.415 11.4837L155.858 12.3139ZM151.064 12.4162L151.57 13.2786L151.573 13.2769L151.064 12.4162ZM149.082 14.206L148.275 13.615L149.082 14.206ZM148.059 16.5199L147.075 16.3437L147.074 16.3473L148.059 16.5199ZM147.535 19.5114L146.55 19.3388L146.548 19.3495L146.547 19.3603L147.535 19.5114ZM147.663 22.5156L146.72 22.8474L147.663 22.5156ZM149.095 24.2287L148.621 25.1095L149.095 24.2287ZM153.569 24.4972L153.877 25.4486L153.569 24.4972ZM155.116 23.6534L155.755 24.4228L155.756 24.4216L155.116 23.6534ZM156.267 22.2472L156.381 21.2537L155.716 21.1774L155.392 21.7627L156.267 22.2472ZM160.498 22.733L161.423 23.1127L161.925 21.8902L160.612 21.7395L160.498 22.733ZM158.44 25.7244L159.123 26.4553L159.126 26.4518L158.44 25.7244ZM155.193 27.6932L155.538 28.6319L155.541 28.6305L155.193 27.6932ZM151.012 27.3835C149.179 27.3835 147.751 27.0028 146.665 26.3124L145.592 28.0001C147.08 28.946 148.908 29.3835 151.012 29.3835V27.3835ZM146.669 26.3149C145.58 25.6152 144.814 24.6335 144.364 23.3276L142.473 23.9792C143.063 25.6903 144.104 27.0439 145.588 27.9976L146.669 26.3149ZM144.366 23.334C143.921 22.0121 143.828 20.3999 144.15 18.4606L142.176 18.1331C141.817 20.3018 141.894 22.2607 142.471 23.9728L144.366 23.334ZM144.15 18.4592C144.462 16.5642 145.092 14.9293 146.026 13.5355L144.365 12.4219C143.254 14.0792 142.529 15.9897 142.176 18.1345L144.15 18.4592ZM146.028 13.5334C146.967 12.1249 148.129 11.0443 149.517 10.2733L148.545 8.52499C146.865 9.45857 145.47 10.7643 144.364 12.424L146.028 13.5334ZM149.518 10.2724C150.903 9.49946 152.439 9.10795 154.145 9.10795V7.10795C152.117 7.10795 150.244 7.57725 148.544 8.5259L149.518 10.2724ZM154.145 9.10795C155.245 9.10795 156.234 9.28592 157.121 9.62876L157.842 7.76328C156.7 7.32203 155.464 7.10795 154.145 7.10795V9.10795ZM157.127 9.63138C157.988 9.95683 158.705 10.4575 159.294 11.1392L160.808 9.83238C159.999 8.89482 159.003 8.20226 157.835 7.76066L157.127 9.63138ZM159.294 11.1392C159.862 11.7979 160.281 12.6659 160.517 13.7859L162.474 13.3732C162.182 11.9875 161.637 10.793 160.808 9.83238L159.294 11.1392ZM160.517 13.7872C160.748 14.8721 160.747 16.2217 160.471 17.8624L162.443 18.1944C162.747 16.3919 162.772 14.7756 162.474 13.3718L160.517 13.7872ZM160.469 17.877L160.251 19.2961L162.228 19.5988L162.446 18.1798L160.469 17.877ZM161.24 18.4474H145.132V20.4474H161.24V18.4474ZM146.119 19.6053L146.618 16.486L144.643 16.1703L144.144 19.2896L146.119 19.6053ZM145.63 17.3281H157.289V15.3281H145.63V17.3281ZM158.275 16.4987C158.452 15.4769 158.403 14.5046 158.074 13.6158L156.198 14.3104C156.38 14.8022 156.434 15.4066 156.304 16.1576L158.275 16.4987ZM158.075 13.6195C157.75 12.7297 157.194 12.0065 156.415 11.4837L155.3 13.1441C155.715 13.4225 156.011 13.7987 156.197 14.3067L158.075 13.6195ZM156.415 11.4837C155.617 10.948 154.665 10.7131 153.62 10.7131V12.7131C154.366 12.7131 154.905 12.8787 155.3 13.1441L156.415 11.4837ZM153.62 10.7131C152.528 10.7131 151.5 10.9965 150.555 11.5555L151.573 13.2769C152.213 12.8984 152.889 12.7131 153.62 12.7131V10.7131ZM150.557 11.5538C149.656 12.083 148.893 12.7719 148.275 13.615L149.889 14.7969C150.345 14.1741 150.903 13.6698 151.57 13.2786L150.557 11.5538ZM148.275 13.615C147.658 14.4579 147.249 15.369 147.075 16.3437L149.044 16.696C149.159 16.0515 149.432 15.42 149.889 14.7969L148.275 13.615ZM147.074 16.3473L146.55 19.3388L148.52 19.6839L149.044 16.6925L147.074 16.3473ZM146.547 19.3603C146.346 20.6739 146.372 21.8579 146.72 22.8474L148.606 22.1839C148.409 21.6222 148.349 20.8034 148.524 19.6624L146.547 19.3603ZM146.72 22.8474C147.069 23.8422 147.705 24.6172 148.621 25.1095L149.568 23.3479C149.121 23.1072 148.802 22.7402 148.606 22.1839L146.72 22.8474ZM148.621 25.1095C149.49 25.5765 150.527 25.7784 151.677 25.7784V23.7784C150.748 23.7784 150.063 23.6139 149.568 23.3479L148.621 25.1095ZM151.677 25.7784C152.451 25.7784 153.187 25.6719 153.877 25.4486L153.261 23.5457C152.792 23.6975 152.267 23.7784 151.677 23.7784V25.7784ZM153.877 25.4486C154.573 25.2235 155.202 24.882 155.755 24.4228L154.477 22.884C154.127 23.1748 153.725 23.3958 153.261 23.5457L153.877 25.4486ZM155.756 24.4216C156.317 23.9544 156.778 23.3877 157.141 22.7317L155.392 21.7627C155.142 22.2146 154.836 22.5854 154.476 22.8852L155.756 24.4216ZM156.153 23.2406L160.384 23.7264L160.612 21.7395L156.381 21.2537L156.153 23.2406ZM159.573 22.3532C159.159 23.3629 158.554 24.2417 157.754 24.997L159.126 26.4518C160.132 25.5026 160.9 24.3871 161.423 23.1127L159.573 22.3532ZM157.757 24.9936C156.959 25.7394 155.993 26.329 154.844 26.7558L155.541 28.6305C156.915 28.1198 158.114 27.397 159.123 26.4553L157.757 24.9936ZM154.848 26.7545C153.721 27.1686 152.446 27.3835 151.012 27.3835V29.3835C152.647 29.3835 154.159 29.1382 155.538 28.6319L154.848 26.7545Z" fill="#25002C"/>
</svg>
