<svg width="1240" height="305" viewBox="0 0 1240 305" fill="none" xmlns="http://www.w3.org/2000/svg">
<rect width="1240" height="305" rx="10" fill="white"/>
<path d="M213.058 172.966C221.08 183.053 240.85 223.634 225.434 235.522C204.116 251.96 179.458 206.529 174.935 193.299L213.058 172.966Z" fill="#FEBD9D"/>
<path d="M215.291 171.287C215.291 171.287 212.288 173.604 207.522 176.804C198.871 182.612 184.412 191.3 171.595 194.153C171.595 194.153 170.272 191.507 168.255 187.519L163.751 178.596C161.04 173.201 158.028 167.215 155.457 162.082L152.464 156.077C151.91 154.97 151.413 153.966 150.991 153.094C143.484 137.884 135.087 102.051 159.745 99.6681C161.852 99.4493 163.973 99.4053 166.087 99.5367H166.191C166.772 99.5837 167.335 99.6399 167.889 99.715L168.358 99.7807L169.184 99.9308C169.512 99.9871 169.841 100.062 170.122 100.137C170.404 100.212 170.629 100.259 170.873 100.334L171.22 100.419L171.933 100.653C172.16 100.722 172.382 100.803 172.599 100.897C172.827 100.965 173.05 101.05 173.265 101.151C173.524 101.25 173.778 101.362 174.025 101.488C174.253 101.583 174.475 101.69 174.691 101.807C174.985 101.945 175.267 102.095 175.536 102.258C175.78 102.389 176.014 102.53 176.24 102.671L176.821 103.055C177.505 103.509 178.163 104.001 178.792 104.528C179.064 104.754 179.327 104.969 179.58 105.213C180.434 105.988 181.245 106.809 182.01 107.672C182.263 107.962 182.526 108.263 182.779 108.61C183.033 108.957 183.174 109.088 183.371 109.332C183.69 109.726 184.009 110.139 184.309 110.571C184.525 110.843 184.731 111.134 184.937 111.425C185.257 111.866 185.576 112.363 185.876 112.795C186.176 113.226 186.373 113.517 186.617 113.911L187.386 115.131C187.649 115.544 187.902 115.966 188.165 116.407C188.766 117.392 189.357 118.434 189.957 119.513C190.145 119.869 190.351 120.235 190.548 120.601C190.745 120.967 191.083 121.596 191.355 122.112C191.627 122.628 191.881 123.05 192.134 123.594C192.387 124.138 192.725 124.73 193.025 125.321C193.645 126.54 194.264 127.77 194.902 129.008C201.977 143.148 209.201 158.442 212.814 166.183C214.409 169.373 215.291 171.287 215.291 171.287Z" fill="#8C39CD"/>
<path d="M194.996 128.999C188.089 129.242 181.553 132.179 176.784 137.18C176.122 137.874 175.495 138.6 174.907 139.357C168.944 146.721 161.226 152.47 152.464 156.077C151.91 154.97 151.413 153.966 150.991 153.094C143.484 137.884 135.087 102.051 159.745 99.6681C161.852 99.4493 163.973 99.4053 166.087 99.5367H166.191C166.772 99.5837 167.335 99.6399 167.889 99.715L168.358 99.7807L169.184 99.9308C169.512 99.9871 169.841 100.062 170.122 100.137C170.404 100.212 170.629 100.259 170.873 100.334L171.22 100.419L171.933 100.653C172.16 100.722 172.382 100.803 172.599 100.897C172.827 100.965 173.05 101.05 173.265 101.151C173.524 101.25 173.778 101.362 174.025 101.488C174.253 101.583 174.475 101.69 174.691 101.807C174.985 101.945 175.267 102.095 175.536 102.258C175.78 102.389 176.014 102.53 176.24 102.671L176.821 103.055C177.505 103.509 178.163 104.001 178.792 104.528C179.064 104.754 179.327 104.969 179.58 105.213C180.434 105.988 181.245 106.809 182.01 107.672C182.263 107.962 182.526 108.263 182.779 108.61C183.033 108.957 183.174 109.088 183.371 109.332C183.69 109.726 184.009 110.139 184.309 110.571C184.525 110.843 184.731 111.134 184.937 111.425C185.257 111.866 185.576 112.363 185.876 112.795C186.176 113.226 186.373 113.517 186.617 113.911L187.386 115.131C187.649 115.544 187.902 115.966 188.165 116.407C188.766 117.392 189.357 118.434 189.957 119.513C190.145 119.869 190.351 120.235 190.548 120.601C190.745 120.967 191.083 121.596 191.355 122.112C191.627 122.628 191.881 123.05 192.134 123.594C192.387 124.138 192.725 124.73 193.025 125.321C193.767 126.531 194.386 127.76 194.996 128.999Z" fill="#8C39CD"/>
<path d="M207.522 176.804C198.871 182.612 184.412 191.3 171.595 194.153C171.595 194.153 170.272 191.507 168.255 187.519L163.751 178.596C161.04 173.201 158.028 167.215 155.457 162.082L170.113 147.83C170.685 147.614 181.898 148.186 178.435 157.588C174.973 166.989 168.865 173.285 173.847 177.104C178.829 180.923 193.223 150.129 205.917 172.938C206.609 174.156 207.148 175.454 207.522 176.804Z" fill="#8C39CD"/>
<path d="M178.37 122.703C178.37 123.201 178.37 123.707 178.295 124.233C178.135 126.851 177.844 129.787 177.45 133.09C177.309 134.338 177.084 135.699 176.784 137.181C176.437 138.973 175.987 140.934 175.47 142.989C173.828 149.444 171.398 157.148 168.537 165.367C168.199 166.305 167.852 167.337 167.495 168.322C166.866 170.115 166.21 171.916 165.553 173.727C164.965 175.341 164.364 176.964 163.751 178.597C156.733 197.362 148.654 216.728 143.588 228.588C132.216 229.182 121.182 229.842 110.485 230.568C106.732 230.812 103.01 231.068 99.3198 231.337C94.1217 231.725 89.0237 232.119 84.0258 232.519C71.2465 233.561 59.1615 234.687 47.874 235.888C49.9288 225.783 55.4928 199.014 62.0326 171.053C65.6356 155.665 69.5388 139.911 73.2919 126.381C75.9473 116.858 78.5463 108.442 80.9201 101.986C83.3972 95.3338 85.6115 90.8019 87.4881 89.3663C93.9997 84.3934 99.6106 82.7984 106.638 83.6616C107.408 83.7648 108.187 83.8868 108.993 84.0369C109.8 84.187 110.617 84.3747 111.461 84.5811C111.771 84.6468 112.08 84.7312 112.399 84.8157C112.718 84.9001 113.066 85.0033 113.403 85.0972L114.464 85.3974C116.134 85.8978 117.907 86.4827 119.784 87.152L120.947 87.5648C121.885 87.9026 122.824 88.2592 123.837 88.6439C125.714 89.3476 127.703 90.1357 129.823 90.9708C135.124 93.0819 142.105 95.9155 156.902 99.0306C157.887 99.2276 158.835 99.4434 159.717 99.6498L160.505 99.8281L161.265 100.016C161.64 100.1 162.025 100.203 162.381 100.297C162.738 100.391 163.104 100.485 163.451 100.579C164.155 100.766 164.83 100.954 165.478 101.16C166.519 101.489 167.495 101.827 168.405 102.193L169.259 102.549C169.803 102.802 170.319 103.056 170.798 103.319L171.436 103.675C172.423 104.254 173.337 104.95 174.157 105.749L174.316 105.908L174.542 106.152L174.842 106.49C175.139 106.841 175.417 107.208 175.677 107.588C175.818 107.804 175.949 108.01 176.08 108.244C176.212 108.479 176.287 108.601 176.381 108.798L176.512 109.061C177.274 110.694 177.78 112.434 178.013 114.221C178.013 114.456 178.079 114.69 178.116 114.944C178.154 115.197 178.116 115.253 178.173 115.422C178.229 115.591 178.229 115.957 178.248 116.229C178.267 116.501 178.295 116.83 178.304 117.168V117.571C178.304 117.899 178.304 118.237 178.304 118.584C178.454 119.851 178.435 121.221 178.37 122.703Z" fill="#8C39CD"/>
<path d="M143.588 228.588C148.654 216.728 156.724 197.39 163.751 178.596C164.377 176.964 164.977 175.34 165.553 173.727C166.21 171.916 166.866 170.114 167.495 168.322C167.852 167.337 168.199 166.342 168.537 165.367C171.351 157.147 173.828 149.416 175.47 142.989" stroke="#8C39CD" stroke-width="0.75" stroke-linecap="round" stroke-linejoin="round"/>
<path d="M177.45 133.09C177.31 134.338 177.084 135.699 176.784 137.181C176.122 137.874 175.496 138.601 174.908 139.358C168.944 146.722 161.227 152.471 152.464 156.078C138.878 161.454 122.993 160.122 112.728 139.095C110.917 135.342 109.144 131.983 107.427 128.896C98.1939 112.41 89.9839 104.501 80.9389 102.005C83.416 95.3526 85.6303 90.8207 87.5068 89.3851C94.0185 84.4122 99.6294 82.8172 106.657 83.6804C107.427 83.7836 108.205 83.9056 109.012 84.0557C109.819 84.2058 110.635 84.3935 111.48 84.5999C111.79 84.6656 112.099 84.75 112.418 84.8345C112.737 84.9189 113.084 85.0221 113.422 85.1159L114.482 85.4162C116.152 85.9166 117.926 86.5015 119.802 87.1708L120.966 87.5836C121.904 87.9214 122.842 88.2779 123.856 88.6626C124.635 88.9629 125.451 89.2631 126.277 89.6009C126.83 89.8073 127.374 90.0231 127.947 90.2577L129.823 90.999C135.124 93.1101 142.105 95.9437 156.902 99.0588C157.887 99.2558 158.835 99.4716 159.717 99.678C177.075 103.619 180.481 107.954 177.45 133.09Z" fill="#8C39CD"/>
<path d="M166.116 99.537C163.104 108.826 155.579 118.443 144.085 116.698C131.54 114.822 123.809 101.864 123.865 88.6623C125.742 89.366 127.731 90.1542 129.851 90.9892C135.153 93.1004 142.133 95.934 156.93 99.0491C157.915 99.2461 158.863 99.4619 159.745 99.6683C161.861 99.4479 163.992 99.404 166.116 99.537Z" fill="white"/>
<path d="M118.217 219.609C113.272 223.549 99.8546 228.991 84.0258 232.519C71.2465 233.561 59.1615 234.687 47.874 235.888C49.9288 225.783 55.4928 199.013 62.0326 171.053C65.6356 155.665 69.5388 139.911 73.2919 126.381C100.915 130.266 108.28 159.512 95.7356 169.401C81.6614 180.529 80.1132 189.771 97.9311 189.527C115.749 189.283 132.141 208.528 118.217 219.609Z" fill="#8C39CD"/>
<path d="M162.26 63.9388C162.128 65.2711 161.987 66.5378 161.865 67.7482C160.758 78.5759 160.261 85.2283 160.186 91.3365C160.186 94.5642 160.186 97.6418 160.411 101.104C160.411 101.104 156.02 115.516 140.379 109.549C129.345 105.326 129.851 91.0175 129.851 91.0175C133.079 80.7829 135.227 70.2387 136.26 59.557C136.635 54.1995 164.286 44.5539 162.26 63.9388Z" fill="#FEBD9D"/>
<path d="M161.865 67.748C160.758 78.5758 160.261 85.2282 160.186 91.3364C151.216 94.0574 141.871 83.5768 147.05 72.0735C150.803 63.9199 157.521 65.5337 161.865 67.748Z" fill="#F4A789"/>
<path d="M215.291 171.287C215.291 171.287 191.459 189.725 171.595 194.153C171.595 194.153 170.272 191.507 168.255 187.52C184.581 181.89 201.677 173.68 212.908 166.174C214.409 169.373 215.291 171.287 215.291 171.287Z" fill="white"/>
<path d="M168.386 78.3225C163.132 85.1626 153.796 83.5675 139.243 68.799C133.736 63.1693 127.384 54.0962 127.552 46.9183C127.721 39.7405 136.41 24.6248 152.886 33.3039C159.247 36.6629 163.798 43.1371 166.688 50.1929C167.781 52.8913 168.65 55.6749 169.287 58.5154C171.21 67.1195 170.826 75.1418 168.386 78.3225Z" fill="#FEBD9D"/>
<path d="M150.371 58.0182C149.48 60.2419 145.811 60.8799 142.171 59.435C138.53 57.99 136.288 55.0063 137.179 52.7826C138.07 50.5589 141.73 49.9115 145.38 51.3564C149.03 52.8014 151.253 55.7851 150.371 58.0182Z" fill="#F4A789"/>
<path d="M169.259 58.4964C166.969 59.3409 164.783 59.1063 163.77 57.7458C162.372 55.8692 163.667 52.5196 166.66 50.1739C167.752 52.8723 168.621 55.6558 169.259 58.4964Z" fill="#F4A789"/>
<path d="M165.543 52.1915C169.181 52.1915 172.13 49.2426 172.13 45.6048C172.13 41.9671 169.181 39.0181 165.543 39.0181C161.905 39.0181 158.956 41.9671 158.956 45.6048C158.956 49.2426 161.905 52.1915 165.543 52.1915Z" stroke="#683F1D" stroke-miterlimit="10"/>
<path d="M150.868 49.1136C150.867 49.3849 150.945 49.6507 151.095 49.8772C151.244 50.1037 151.457 50.2807 151.708 50.3859C151.958 50.491 152.233 50.5194 152.5 50.4676C152.766 50.4158 153.011 50.2861 153.204 50.0949C153.396 49.9037 153.528 49.6596 153.581 49.3937C153.635 49.1277 153.608 48.8518 153.505 48.6009C153.401 48.35 153.226 48.1355 153 47.9846C152.775 47.8336 152.51 47.7531 152.238 47.7531C151.877 47.753 151.53 47.8961 151.273 48.151C151.016 48.4059 150.871 48.7519 150.868 49.1136Z" fill="#683F1D"/>
<path d="M160.411 46.9747C160.411 47.2456 160.491 47.5105 160.642 47.7358C160.792 47.961 161.006 48.1366 161.257 48.2403C161.507 48.344 161.782 48.3711 162.048 48.3183C162.314 48.2654 162.558 48.1349 162.749 47.9434C162.941 47.7518 163.071 47.5077 163.124 47.2419C163.177 46.9762 163.15 46.7008 163.046 46.4505C162.943 46.2002 162.767 45.9862 162.542 45.8357C162.317 45.6851 162.052 45.6048 161.781 45.6048C161.417 45.6048 161.069 45.7491 160.812 46.006C160.555 46.2629 160.411 46.6114 160.411 46.9747Z" fill="#683F1D"/>
<path d="M140.613 67.8231C137.254 69.7559 132.037 69.7559 130.236 64.4077C128.434 59.0595 133.567 56.3761 136.475 56.9015C140.06 57.5583 142.049 62.8127 140.613 67.8231Z" fill="#FEBD9D"/>
<path d="M138.821 62.9251C137.188 59.8288 133.501 59.172 131.934 63.3661" stroke="#F4A789" stroke-width="0.75" stroke-linecap="round" stroke-linejoin="round"/>
<path d="M137.911 61.6492C133.923 59.8571 133.126 66.6597 137.723 64.9426" stroke="#F4A789" stroke-width="0.75" stroke-linecap="round" stroke-linejoin="round"/>
<path d="M164.596 45.8016C162.963 42.6874 160.865 39.8399 158.375 37.3571C154.331 39.6278 151.619 37.5542 151.619 37.5542C151.619 37.5542 147.678 41.767 144 40.7443C140.322 39.7216 140.594 37.1601 138.277 36.5784C135.959 35.9966 133.726 38.4549 133.726 39.1586C133.726 39.8624 134.927 40.3033 137.132 45.5295C139.337 50.7557 138.68 58.0837 134.177 58.9094C132.741 59.1721 125.563 58.1869 121.979 52.7731C121.907 52.6837 121.841 52.5897 121.782 52.4916C118.282 46.815 120.328 42.7335 121.519 41.2322C122.711 39.731 124.578 40.3972 124.841 38.971C126.361 30.8549 133.839 23.8741 141.852 23.1234C149.865 22.3728 149.611 25.2909 149.611 25.2909C149.611 25.2909 157.615 24.681 161.959 30.2075C162.222 30.5359 162.466 30.8642 162.682 31.1926C164.134 33.3026 165.065 35.727 165.397 38.2667C165.73 40.8064 165.455 43.3888 164.596 45.8016Z" fill="#7F542D"/>
<path d="M164.596 45.8015C162.963 42.6873 160.865 39.8398 158.375 37.357C154.331 39.6276 151.619 37.554 151.619 37.554C151.619 37.554 147.678 41.7669 144 40.7442C140.322 39.7215 140.594 37.16 138.277 36.5783C135.959 35.9965 133.726 38.4548 133.726 39.1585C133.726 39.8622 134.927 40.3032 137.132 45.5294C139.337 50.7556 138.68 58.0836 134.177 58.9093C132.741 59.172 125.563 58.1868 121.979 52.7729C131.362 51.0277 131.671 46.0361 129.664 38.0044C128.35 32.7125 138.108 27.7584 143.559 31.1268C146.956 33.238 156.282 32.5718 162.682 31.1925C164.134 33.3024 165.065 35.7269 165.397 38.2666C165.73 40.8063 165.455 43.3887 164.596 45.8015Z" fill="#683F1D"/>
<path d="M149.63 25.3004C146.39 25.2912 143.181 25.9292 140.191 27.177" stroke="#BF8228" stroke-width="0.75" stroke-linecap="round" stroke-linejoin="round"/>
<path d="M150.643 31.0051C152.126 31.2679 156.798 35.2931 158.375 37.3667C158.375 37.3667 160.992 39.2432 162.259 36.5785" stroke="#BF8228" stroke-width="0.75" stroke-linecap="round" stroke-linejoin="round"/>
<path d="M142.077 33.388C143.381 32.2433 145.924 32.5624 147.707 34.514C148.846 35.7101 150.151 36.7369 151.582 37.5634" stroke="#BF8228" stroke-width="0.75" stroke-linecap="round" stroke-linejoin="round"/>
<path d="M155.006 42.5458C154.584 47.2372 156.057 49.4422 158.074 49.5641C160.092 49.6861 162.766 50.3617 162.259 53.5237" stroke="#F4A789" stroke-width="0.75" stroke-linecap="round" stroke-linejoin="round"/>
<path d="M152.679 59.5287C155.468 60.0105 158.295 60.2272 161.124 60.1761C161.124 60.1761 160.186 63.7791 156.705 63.3663C155.712 63.2395 154.786 62.7987 154.062 62.1083C153.338 61.4179 152.853 60.514 152.679 59.5287Z" fill="white" stroke="#F4A789" stroke-width="0.75" stroke-linecap="round" stroke-linejoin="round"/>
<path d="M143.437 50.5212C143.437 51.8202 143.823 53.09 144.544 54.1701C145.266 55.2502 146.292 56.092 147.492 56.5892C148.692 57.0863 150.013 57.2163 151.287 56.9629C152.561 56.7095 153.731 56.0839 154.65 55.1654C155.568 54.2468 156.194 53.0766 156.447 51.8025C156.7 50.5284 156.57 49.2079 156.073 48.0077C155.576 46.8076 154.734 45.7818 153.654 45.0601C152.574 44.3384 151.304 43.9532 150.005 43.9532C148.263 43.9532 146.593 44.6452 145.361 45.8769C144.129 47.1087 143.437 48.7792 143.437 50.5212V50.5212Z" stroke="#683F1D" stroke-miterlimit="10"/>
<path d="M156.02 39.806C155.898 42.1517 162.475 41.6825 162.531 40.6692C162.588 39.6558 156.142 37.5729 156.02 39.806Z" fill="#7F542D"/>
<path d="M145.023 45.3043C145.699 46.6554 152.154 43.165 150.653 40.7255C149.151 38.286 144.094 43.4841 145.023 45.3043Z" fill="#7F542D"/>
<path d="M140.613 67.823C138.943 68.8065 136.983 69.1811 135.068 68.8832" stroke="#F4A789" stroke-width="0.75" stroke-linecap="round" stroke-linejoin="round"/>
<path d="M100.736 140.962C92.4513 153 85.6676 165.151 79.5594 176.335C64.4812 203.93 55.8584 224.009 37.2711 223.765C20.3164 223.531 18.5056 198.62 38.2751 158.086L33.2835 153.441C33.2835 153.441 47.8174 132.255 61.7978 110.975C74.427 91.7683 85.4799 77.8443 106.666 83.6616C119.174 87.1239 115.449 119.485 100.736 140.962Z" fill="#FEBD9D"/>
<path d="M107.426 128.867C105.558 133.08 103.319 137.118 100.736 140.934C94.1684 150.448 88.5857 160.028 83.5096 169.148C82.1491 171.569 80.8355 173.961 79.5594 176.307C73.6282 174.882 67.7774 173.141 62.0324 171.09C53.2219 167.815 44.374 163.584 38.2095 158.095L33.2178 153.45C33.2178 153.45 34.8129 151.133 37.4401 147.276C42.7601 139.442 52.3681 125.236 61.7321 110.984C63.8902 107.691 66.0107 104.557 68.1406 101.648C78.4616 87.5738 89.0454 78.8478 106.61 83.6706C117.025 86.5792 116.246 109.079 107.426 128.867Z" fill="#8C39CD"/>
<path d="M83.5096 169.214C82.1491 171.635 80.8355 174.027 79.5595 176.373C66.5737 173.164 48.5963 167.365 38.2752 158.133L33.2836 153.488C33.2836 153.488 34.8786 151.171 37.5058 147.314C45.2091 155.674 55.5302 160.994 83.5096 169.214Z" fill="white"/>
<path d="M107.426 128.868C98.1936 112.382 89.9837 104.472 80.9387 101.977C76.7654 100.905 72.4047 100.783 68.1781 101.62C78.4992 87.5459 89.083 78.8199 106.648 83.6426C117.025 86.5794 116.246 109.079 107.426 128.868Z" fill="#8C39CD"/>
<path d="M107.483 128.755C105.609 133.017 103.35 137.1 100.736 140.953C92.4515 152.991 85.6677 165.141 79.5595 176.326" stroke="#8C39CD" stroke-width="0.75" stroke-linecap="round" stroke-linejoin="round"/>
<path d="M106.338 112.204C108.215 118.912 111.189 122.027 105.071 133.784" stroke="#8C39CD" stroke-width="0.75" stroke-linecap="round" stroke-linejoin="round"/>
<path d="M26.0586 205.412C33.2552 188.063 59.6115 187.491 91.4379 199.097C123.264 210.704 158.253 222.329 163.554 223.764C168.855 225.2 167.861 243.262 154.518 242.258C141.176 241.254 90.7154 245.626 61.1878 240.137C31.6602 234.648 21.3203 216.755 26.0586 205.412Z" fill="#FEBD9D"/>
<path d="M40.9022 192.904C49.3467 190.409 60.4371 190.775 73.1133 193.636" stroke="#F4A789" stroke-width="0.75" stroke-linecap="round" stroke-linejoin="round"/>
<path d="M239.498 224.3C253.573 204.071 260.835 124.204 260.835 124.204C260.835 124.204 274.956 117.636 277.302 116.051C279.647 114.465 284.207 106.527 284.996 104.153C284.996 104.153 288.955 101.733 288.833 100.4C288.711 99.0678 287.257 99.0678 287.257 99.0678C287.257 99.0678 288.195 96.0372 283.081 96.891C282.84 96.5737 282.513 96.3312 282.14 96.1917C281.766 96.0522 281.361 96.0214 280.97 96.1029C279.45 96.2811 261.36 101.667 261.36 101.667C261.36 101.667 268.745 96.5251 268.867 94.4703C268.989 92.4154 266.493 93.213 264.794 94.2357C261.354 96.2621 257.655 97.8119 253.798 98.8426C251.987 99.3681 246.292 103.928 241.15 113.789C236.008 123.651 205.833 188.58 202.54 197.362C191.768 226.242 216.07 257.862 239.498 224.3Z" fill="#FEBD9D"/>
<path d="M213.367 172.901C208.038 184.686 203.675 194.369 202.54 197.362" stroke="#F4A789" stroke-width="0.75" stroke-linecap="round" stroke-linejoin="round"/>
<path d="M277.302 116.051C279.657 114.474 284.208 106.527 284.996 104.153C284.996 104.153 288.955 101.733 288.833 100.4C288.711 99.0679 287.257 99.0678 287.257 99.0678C287.257 99.0678 288.195 96.0372 283.082 96.8911C282.84 96.5737 282.514 96.3312 282.14 96.1917C281.766 96.0522 281.361 96.0214 280.971 96.1029C279.451 96.2812 261.36 101.667 261.36 101.667C261.36 101.667 268.745 96.5251 268.867 94.4703C268.989 92.4155 266.493 93.213 264.795 94.2357C261.355 96.2621 257.655 97.8119 253.798 98.8427" stroke="#F4A789" stroke-width="0.75" stroke-linecap="round" stroke-linejoin="round"/>
<path d="M261.36 101.657L258.546 103.59C258.546 103.59 260.854 108.723 255.177 112.973" stroke="#F4A789" stroke-width="0.75" stroke-linecap="round" stroke-linejoin="round"/>
<path d="M266.277 104.632L283.082 96.8913" stroke="#F4A789" stroke-width="0.75" stroke-linecap="round" stroke-linejoin="round"/>
<path d="M272.685 110.309C272.826 110.215 277.78 107.879 277.78 107.879C277.78 107.879 282.875 99.9407 284.226 99.5372C285.577 99.1338 287.126 99.7906 284.996 104.154" stroke="#F4A789" stroke-width="0.75" stroke-linecap="round" stroke-linejoin="round"/>
<path d="M269.026 107.325L283.635 99.9407" stroke="#F4A789" stroke-width="0.75" stroke-linecap="round" stroke-linejoin="round"/>
<path d="M287.257 99.0679L285.371 99.5277" stroke="#F4A789" stroke-width="0.75" stroke-linecap="round" stroke-linejoin="round"/>
<path d="M230.012 198.919C221.718 223.84 207.24 259.485 207.24 259.485L110.513 281.432L43.5013 265.556V260.667L120.112 244.51C125.629 230.53 132.666 203.911 136.147 203.226C141.842 202.1 221.483 189.696 227.498 189.537C233.184 189.377 231.814 193.505 230.012 198.919Z" fill="#F9F9F9" stroke="#DDDDDD" stroke-linecap="round" stroke-linejoin="round"/>
<path d="M120.112 244.51L109.641 272.152" stroke="#DDDDDD" stroke-linecap="round" stroke-linejoin="round"/>
<path d="M110.663 276.055L110.513 281.432L43.5014 265.556V260.668L110.663 276.055Z" fill="#DDDDDD" stroke="#DDDDDD" stroke-linecap="round" stroke-linejoin="round"/>
<path d="M1073.77 167.373C1073.66 169.436 1073.42 171.67 1073.05 173.984C1070.24 192.163 1060.21 218.275 1049.08 234.207C1046.85 237.498 1044.27 240.543 1041.4 243.29C1032.63 251.341 1018.7 252.862 1008.96 247.256C1006.03 245.564 1003.52 243.211 1001.65 240.384C999.783 237.557 998.597 234.333 998.189 230.967C997.766 228.05 997.731 225.089 998.083 222.162C999.947 205.649 1011.2 177.355 1024.78 156.942C1026.32 154.589 1027.91 152.341 1029.52 150.239C1037.19 140.191 1045.31 133.183 1052.73 132.417C1054.26 132.242 1055.81 132.363 1057.3 132.774C1069.58 136.264 1074.87 145.929 1073.77 167.373Z" fill="#8C39CD"/>
<path d="M1051.27 177.223C1047.54 190.04 1046.05 203.404 1046.86 216.728C1047.27 222.609 1048.02 228.461 1049.08 234.26C1046.85 237.551 1044.27 240.596 1041.4 243.343C1032.63 251.394 1018.69 252.915 1008.96 247.309C1006.02 245.612 1003.51 243.251 1001.64 240.414C999.771 237.577 998.589 234.342 998.189 230.968C1006.84 240.222 1015.88 242.219 1023.04 239.879C1033.37 236.547 1039.86 224.278 1035.87 211.704C1028.88 189.625 1044.66 176.999 1052.2 173.363C1051.95 174.606 1051.6 175.915 1051.27 177.223Z" fill="#8C39CD"/>
<path d="M1073.77 167.374C1073.66 169.436 1073.42 171.671 1073.05 173.984C1071.75 172.076 1070.69 170.021 1069.87 167.863C1066.05 157.669 1059.18 151.931 1051.55 149.446C1044.33 147.197 1036.57 147.458 1029.52 150.186C1037.19 140.138 1045.31 133.131 1052.73 132.364C1054.26 132.19 1055.81 132.311 1057.3 132.721C1069.58 136.264 1074.87 145.929 1073.77 167.374Z" fill="#8C39CD"/>
<path d="M1103.06 149.868C1089.16 151.561 1086.18 140.428 1086.08 124.523C1086.08 120.782 1086.2 116.776 1086.41 112.624C1086.52 110.164 1086.79 107.713 1087.21 105.286C1091.94 78.1962 1114.36 81.4883 1115.51 97.4331C1115.96 103.475 1120.23 147.779 1103.06 149.868Z" fill="#B25E47"/>
<path d="M1102.73 107.825C1101.99 118.521 1094.29 124.021 1086.1 124.523C1086.1 120.782 1086.22 116.776 1086.43 112.624C1086.54 110.164 1086.8 107.713 1087.22 105.286C1091.73 103.33 1103.31 99.1516 1102.73 107.825Z" fill="#914839"/>
<path d="M1156.53 213.198C1155.8 215.646 1155.22 218.136 1154.79 220.655C1154.67 221.342 1154.56 221.977 1154.45 222.704C1150.19 249.252 1149.66 273.857 1149.37 276.408C1149.08 278.96 1125.31 278.087 1107.63 277.228C1100.75 276.884 1091.85 276.977 1083.44 277.043C1070.22 277.149 1058.32 277.175 1057.37 275.311C1056.73 274.108 1055.03 267.035 1053.18 257.965C1052.88 256.563 1052.58 255.109 1052.29 253.628C1052.14 252.888 1051.99 252.134 1051.85 251.381C1051.72 250.627 1051.52 249.649 1051.35 248.736C1051.18 247.824 1051.01 246.885 1050.82 245.947C1050.45 243.884 1050.07 241.782 1049.71 239.706C1049.35 237.631 1049.02 235.581 1048.71 233.572C1047.72 227.764 1047.03 221.907 1046.66 216.027C1046 202.692 1047.64 189.343 1051.5 176.562C1051.6 176.231 1051.69 175.914 1051.77 175.583C1051.92 175.028 1052.05 174.473 1052.18 173.918C1052.26 173.627 1052.32 173.336 1052.38 173.045C1052.45 172.754 1052.5 172.463 1052.55 172.172C1052.61 171.881 1052.67 171.591 1052.73 171.3C1052.78 171.009 1052.82 170.731 1052.86 170.44C1052.95 169.872 1053.03 169.303 1053.1 168.748C1053.25 167.426 1053.37 166.011 1053.43 164.689C1053.43 164.504 1053.43 164.319 1053.43 164.147C1053.43 163.208 1053.43 162.283 1053.43 161.371C1053.33 157.16 1052.86 152.966 1052.03 148.837C1050.7 141.79 1048.84 136.502 1049.29 134.069C1049.5 132.866 1050.76 132.152 1052.92 131.834C1053.07 131.822 1053.22 131.822 1053.37 131.834C1058.66 131.2 1069.05 132.72 1083.09 135.629C1083.4 132.472 1083.92 129.341 1084.66 126.255C1084.79 125.774 1085.09 125.353 1085.49 125.058C1085.9 124.763 1086.39 124.612 1086.89 124.629C1088.77 124.687 1090.64 124.885 1092.48 125.224C1095.85 125.541 1107.34 123.439 1113.25 120.332C1114.44 119.65 1115.75 119.201 1117.11 119.01C1119.94 118.759 1120.92 120.993 1121.29 124.034V124.431C1121.29 124.576 1121.29 124.721 1121.29 124.867C1121.29 125.012 1121.29 125.422 1121.36 125.713C1121.42 126.004 1121.36 126.149 1121.36 126.374V127.273C1121.36 127.63 1121.36 127.987 1121.36 128.357V129.402C1121.36 129.574 1121.36 129.745 1121.36 129.931C1121.36 130.116 1121.36 130.235 1121.36 130.38C1121.36 130.526 1121.36 130.79 1121.36 131.001C1121.36 131.213 1121.36 131.517 1121.36 131.768C1121.36 132.02 1121.36 132.271 1121.36 132.522V133.011C1121.36 135.219 1121.36 136.885 1121.36 136.885C1132.03 132.839 1148.13 128.714 1160.32 136.211C1164.29 138.726 1167.58 142.188 1169.88 146.285C1170.51 147.344 1171.08 148.434 1171.6 149.551C1182.02 171.194 1163.48 189.598 1156.53 213.198Z" fill="#8C39CD"/>
<path d="M1170.26 146.285C1159.96 147.541 1148.45 154.218 1137.62 167.082C1135.94 169.079 1134.29 171.207 1132.63 173.508C1115.25 197.848 1084.96 191.396 1073.3 173.64C1072.03 171.719 1070.99 169.655 1070.2 167.492C1066.48 157.246 1059.63 151.441 1052.06 148.877C1050.74 141.83 1048.88 136.541 1049.33 134.108C1049.54 132.905 1050.8 132.191 1052.96 131.874C1053.11 131.862 1053.26 131.862 1053.41 131.874C1058.7 131.239 1069.09 132.76 1083.13 135.669C1083.43 132.5 1083.93 129.355 1084.66 126.255C1084.79 125.774 1085.09 125.353 1085.49 125.058C1085.9 124.763 1086.39 124.612 1086.89 124.629C1088.77 124.687 1090.64 124.885 1092.48 125.224C1095.85 125.541 1107.34 123.439 1113.25 120.332C1114.44 119.65 1115.75 119.201 1117.11 119.01C1119.94 118.759 1120.92 120.993 1121.29 124.034V124.431C1121.29 124.576 1121.29 124.721 1121.29 124.867C1121.29 125.012 1121.29 125.422 1121.36 125.713C1121.42 126.004 1121.36 126.149 1121.36 126.374V127.273C1121.36 127.63 1121.36 127.987 1121.36 128.357V129.402C1121.36 129.574 1121.36 129.745 1121.36 129.931C1121.36 130.116 1121.36 130.235 1121.36 130.38C1121.36 130.526 1121.36 130.79 1121.36 131.001C1121.36 131.213 1121.36 131.517 1121.36 131.768C1121.36 132.02 1121.36 132.271 1121.36 132.522V133.011C1121.36 135.219 1121.36 136.885 1121.36 136.885C1132.03 132.839 1148.13 128.714 1160.32 136.211C1164.43 138.676 1167.85 142.142 1170.26 146.285Z" fill="#8C39CD"/>
<path d="M1053.11 164.227C1053.08 167.28 1052.77 170.324 1052.2 173.323C1051.95 174.645 1051.64 175.967 1051.27 177.289C1047.54 190.106 1046.05 203.47 1046.86 216.794C1047.27 222.674 1048.01 228.527 1049.08 234.326C1049.41 236.335 1049.76 238.384 1050.15 240.447C1051.28 246.661 1052.58 253.034 1053.8 258.639C1055.75 267.683 1057.53 274.73 1058.17 275.933" stroke="#8C39CD" stroke-width="1.15577" stroke-linecap="round" stroke-linejoin="round"/>
<path d="M1154.73 222.241C1150.76 248.829 1150.48 273.447 1150.22 275.999C1149.95 278.55 1126.18 277.929 1108.49 277.321C1101.6 277.043 1092.69 277.242 1084.3 277.321C1091.2 271.57 1105.45 262.13 1119.18 268.066C1138.17 276.356 1147.14 250.191 1135.53 247.851C1123.92 245.511 1123.38 232.329 1121.07 221.633L1130.56 217.799L1154.73 222.241Z" fill="#8C39CD"/>
<path d="M1082.47 135.893C1082.36 137.954 1082.36 140.02 1082.47 142.081" stroke="#8C39CD" stroke-width="1.15577" stroke-linecap="round" stroke-linejoin="round"/>
<path d="M1121.04 136.37C1120.89 140.415 1120.7 143.059 1120.7 143.059" stroke="#8C39CD" stroke-width="1.15577" stroke-linecap="round" stroke-linejoin="round"/>
<path d="M1091.69 142.623C1096.98 144.117 1104.91 144.209 1109.52 142.623" stroke="#8C39CD" stroke-width="1.15577" stroke-linecap="round" stroke-linejoin="round"/>
<path d="M1204.59 237.882C1199.23 244.717 1184.53 246.039 1172.6 236.559C1169.28 233.867 1166.43 230.636 1164.18 227C1162.86 224.925 1161.18 221.712 1159.29 218.01C1158.46 216.357 1157.57 214.586 1156.65 212.722C1151.62 202.462 1145.9 190.008 1142.21 182.895C1140.38 179.298 1139.01 175.487 1138.14 171.551C1137.77 169.991 1137.47 168.404 1137.25 166.818C1134.5 147.647 1141.37 127.524 1159.95 135.668H1160.02C1163.72 137.308 1167.66 140.825 1171.61 145.465C1181.21 156.703 1190.85 174.552 1197 187.998C1198.38 191.052 1199.64 193.868 1200.59 196.34C1207.81 214.176 1211.29 229.275 1204.59 237.882Z" fill="#8C39CD"/>
<path d="M1176.37 207.565C1175.96 214.255 1168.09 217.019 1159.29 217.931C1158.46 216.278 1157.57 214.507 1156.65 212.642C1151.62 202.383 1145.9 189.928 1142.21 182.815C1140.38 179.219 1139.01 175.408 1138.14 171.471C1145.71 171.63 1153.91 174.393 1154.66 187.337C1155.23 196.248 1177.34 192.268 1176.37 207.565Z" fill="#8C39CD"/>
<path d="M1171.65 145.426C1171 145.454 1170.35 145.516 1169.71 145.611C1159.43 146.933 1147.97 153.781 1137.29 166.765C1134.54 147.594 1141.41 127.471 1159.99 135.615H1160.06C1163.76 137.321 1167.7 140.838 1171.65 145.426Z" fill="#8C39CD"/>
<path d="M1164.18 226.961C1162.86 224.885 1161.18 221.672 1159.29 217.97C1158.46 216.318 1157.57 214.546 1156.65 212.682C1151.62 202.422 1145.9 189.968 1142.21 182.855C1140.38 179.258 1139.01 175.447 1138.14 171.511C1137.77 169.951 1137.47 168.364 1137.25 166.778" stroke="#8C39CD" stroke-width="1.15577" stroke-linecap="round" stroke-linejoin="round"/>
<path d="M1204.59 237.881C1199.23 244.717 1184.53 246.039 1172.6 236.559C1175.54 235.616 1178.66 235.354 1181.71 235.792C1193.86 237.564 1205.84 232.593 1196.51 218.42C1188.96 206.957 1194.35 192.572 1197.04 188.011C1198.42 191.065 1199.68 193.881 1200.63 196.353C1207.81 214.176 1211.29 229.274 1204.59 237.881Z" fill="#8C39CD"/>
<path d="M1126.59 56.6721C1124.32 58.2851 1122.92 58.5495 1122.97 61.0219C1123.02 63.4942 1121.97 64.1685 1120.91 64.5784C1119.85 64.9882 1121.03 66.7731 1120.7 68.5447C1120.37 70.3164 1115.88 71.969 1115.88 71.969L1086.08 57.9546C1083.6 54.9401 1084.68 53.261 1085.48 51.648C1085.55 51.4944 1085.59 51.3245 1085.59 51.1522C1085.59 50.98 1085.55 50.8101 1085.48 50.6564C1085.07 49.5326 1083.24 48.5543 1083.72 47.2983C1084.31 45.6985 1085.92 45.4208 1087.79 45.3547C1089.65 45.2886 1089.3 39.934 1088.41 38.5194C1087.52 37.1047 1088.2 33.5614 1091.2 33.773C1094.2 33.9845 1095.36 33.3763 1095.63 31.9616C1095.81 31.47 1096.09 31.0213 1096.46 30.6434C1096.82 30.2655 1097.26 29.9667 1097.74 29.7656C1098.22 29.5646 1098.74 29.4656 1099.27 29.4749C1099.79 29.4842 1100.31 29.6017 1100.79 29.8198C1103.13 31.0362 1105.14 29.6876 1106.55 28.3523C1106.63 28.2672 1106.72 28.1918 1106.81 28.1275C1108.36 26.9244 1111.59 26.2633 1112.91 28.3523C1113.51 29.3759 1114.37 30.2203 1115.4 30.7972C1116.44 31.374 1117.61 31.662 1118.79 31.6311C1121.61 31.8294 1122.42 34.1696 1121.81 36.5097C1121.2 38.8499 1122.07 39.6696 1123.9 40.7405C1124.85 41.4944 1125.54 42.5181 1125.9 43.6768C1126.26 44.8356 1126.25 46.0751 1125.89 47.2321C1125.53 47.9117 1125.39 48.6928 1125.52 49.455C1125.64 50.2172 1126.01 50.9181 1126.57 51.4497C1127.45 52.3223 1128.87 55.0591 1126.59 56.6721Z" fill="#683F1D"/>
<path d="M1115.25 94.9739C1112.89 95.9689 1110.34 96.4208 1107.78 96.296C1097.55 95.82 1072.56 105.062 1072.56 105.062C1068.37 105.577 1065.8 107.032 1067.71 109.121C1069.61 111.21 1071.38 117.252 1066.53 117.754C1065.57 117.839 1064.61 117.839 1063.66 117.754C1060.82 117.503 1059.55 116.3 1059.91 115.189C1060.37 113.748 1063.45 114.065 1064.03 113.484C1064.61 112.902 1064.76 111.58 1062.85 109.808C1060.95 108.036 1059.57 105.286 1061.53 102.497C1063.49 99.7071 1067.36 97.2083 1065.01 95.1854C1062.66 93.1626 1060.74 91.4438 1061.73 89.0772C1062.72 86.7106 1068.34 83.3789 1065.7 80.4967C1063.05 77.6144 1060.86 73.8861 1065.84 69.3512C1070.83 64.8163 1075.86 65.6757 1075.1 61.8019C1074.33 57.9281 1074.96 54.1997 1080.39 55.1119C1085.81 56.0242 1086.55 55.6408 1088.91 54.3319C1091.28 53.023 1094.41 53.7369 1097.44 56.3547C1100.47 58.9725 1103.34 56.0242 1107 56.7514C1110.66 57.4785 1107 61.0086 1111.65 61.8019C1116.31 62.5951 1117.89 62.7935 1118.42 67.249C1118.95 71.7046 1122.03 71.7574 1122.68 73.1457C1124 75.975 1121.9 77.945 1121.29 79.5844C1120.68 81.2238 1122.01 82.2286 1123.05 83.9738C1124.8 86.8693 1121.28 92.409 1115.25 94.9739Z" fill="#683F1D"/>
<path d="M1116.86 87.0942C1116.52 89.7751 1115.98 92.4269 1115.25 95.0269C1112.89 96.022 1110.34 96.4738 1107.78 96.3491C1097.55 95.8731 1072.56 105.115 1072.56 105.115C1068.37 105.63 1065.8 107.085 1067.71 109.174C1069.61 111.263 1071.38 117.305 1066.53 117.807C1065.57 117.892 1064.61 117.892 1063.66 117.807C1067.3 117.212 1068.26 114.621 1066.4 111.196C1063.75 106.477 1064.74 103.687 1067.34 100.976C1069.93 98.2661 1065.68 91.8935 1067.34 88.5353C1068.99 85.1771 1071.78 83.974 1070.65 78.8971C1069.53 73.8201 1070.11 71.3874 1074.08 68.5713C1078.04 65.7552 1081.47 65.2131 1083.61 61.8417C1085.75 58.4703 1091.36 56.3549 1093.26 60.3741C1095.17 64.3934 1095.79 67.1434 1101.19 65.504C1106.6 63.8645 1110.15 65.8742 1108.24 70.4752C1106.34 75.0761 1107.24 79.4524 1110.6 80.0209C1113.95 80.5894 1117.51 80.6423 1116.86 87.0942Z" fill="#683F1D"/>
<path d="M1113.01 102.497C1092.88 117.146 1084.21 121.958 1074.58 113.867C1070.09 110.099 1069.29 102.404 1070.2 94.5641C1070.53 91.7625 1071.03 88.9846 1071.71 86.248C1072.72 81.7956 1074.26 77.4809 1076.3 73.3969C1080.65 65.5964 1090.57 65.213 1091.57 65.5964C1092.57 65.9798 1092.89 66.5616 1091.91 68.8753C1090.94 71.189 1092.02 72.8416 1094.81 72.921C1097.6 73.0003 1100.79 74.9438 1100.49 77.7335C1100.31 79.0941 1100.53 80.4793 1101.13 81.7146C1101.73 82.9498 1102.68 83.9798 1103.87 84.6746C1106.51 86.3141 1105.98 88.8129 1106.36 90.3598C1106.75 91.9066 1109.93 93.6386 1110.81 91.51C1111.68 89.3814 1116.68 84.8994 1120.72 89.0112C1124.77 93.123 1121.2 102.788 1113.01 102.497Z" fill="#B25E47"/>
<path d="M1088.89 92.0258C1089.85 94.0354 1093.34 94.366 1096.67 92.7662C1100.01 91.1664 1101.96 88.2181 1100.94 86.1556C1099.93 84.0931 1096.49 83.8154 1093.16 85.4284C1089.82 87.0414 1087.91 90.0162 1088.89 92.0258Z" fill="#914839"/>
<path d="M1075.31 93.7839C1074.4 95.106 1072.36 95.3043 1070.2 94.5639C1070.53 91.7623 1071.03 88.9845 1071.71 86.2478L1072.24 86.5915C1075.24 88.7466 1076.62 91.9726 1075.31 93.7839Z" fill="#914839"/>
<path d="M1074.92 84.0531C1074.92 84.3146 1075 84.5702 1075.15 84.7877C1075.29 85.0051 1075.5 85.1745 1075.74 85.2746C1075.98 85.3747 1076.25 85.4009 1076.5 85.3498C1076.76 85.2988 1077 85.1729 1077.18 84.988C1077.37 84.8031 1077.49 84.5675 1077.54 84.3111C1077.59 84.0546 1077.57 83.7888 1077.47 83.5472C1077.37 83.3056 1077.2 83.0991 1076.98 82.9538C1076.76 82.8085 1076.51 82.731 1076.25 82.731C1075.9 82.731 1075.56 82.8703 1075.31 83.1182C1075.06 83.3662 1074.92 83.7025 1074.92 84.0531Z" fill="#683F1D"/>
<path d="M1083.33 84.7803C1083.33 85.145 1083.48 85.4947 1083.74 85.7526C1083.99 86.0105 1084.34 86.1553 1084.71 86.1553C1085.07 86.1553 1085.42 86.0105 1085.68 85.7526C1085.94 85.4947 1086.08 85.145 1086.08 84.7803C1086.08 84.4157 1085.94 84.0659 1085.68 83.808C1085.42 83.5502 1085.07 83.4053 1084.71 83.4053C1084.34 83.4053 1083.99 83.5502 1083.74 83.808C1083.48 84.0659 1083.33 84.4157 1083.33 84.7803Z" fill="#683F1D"/>
<path d="M1112.27 96.3224C1112.55 93.3609 1115.94 89.2755 1119.59 92.3561" stroke="#914839" stroke-width="1.15577" stroke-linecap="round" stroke-linejoin="round"/>
<path d="M1112.42 95.5952C1114.96 91.2322 1120.05 97.2082 1114.1 98.3849" stroke="#914839" stroke-width="1.15577" stroke-linecap="round" stroke-linejoin="round"/>
<path d="M1078.86 92.8847C1077.36 92.184 1076.75 90.809 1076.88 90.4652C1077.01 90.1215 1081.73 86.6575 1080.85 81.3029" stroke="#914839" stroke-width="1.15577" stroke-linecap="round" stroke-linejoin="round"/>
<path d="M1084.66 74.6002C1084.23 77.3899 1091.01 80.1267 1092.06 78.3551C1093 76.8479 1085.34 70.5017 1084.66 74.6002Z" fill="#683F1D"/>
<path d="M1073.32 76.4378C1073.32 77.2443 1080.68 77.0856 1080.57 74.2695C1080.46 71.4534 1073.14 74.0315 1073.32 76.4378Z" fill="#683F1D"/>
<path d="M1079.57 95.701C1082.09 95.0282 1084.55 94.1436 1086.93 93.0567C1086.93 93.0567 1087.68 97.7106 1084.71 98.57C1084.18 98.7211 1083.63 98.7666 1083.09 98.704C1082.54 98.6414 1082.02 98.4719 1081.54 98.2053C1081.06 97.9387 1080.64 97.5801 1080.3 97.1503C1079.96 96.7205 1079.71 96.228 1079.57 95.701Z" fill="white" stroke="#914839" stroke-width="1.15577" stroke-linecap="round" stroke-linejoin="round"/>
<path d="M1117.89 45.3547C1116.77 48.8318 1112.72 45.2357 1112.41 50.1936C1112.09 55.1516 1102.17 53.7634 1099.19 48.9376C1096.7 44.9713 1089.67 46.4653 1085.53 50.6564C1085.12 49.5326 1083.29 48.5542 1083.77 47.2982C1084.36 45.6984 1085.98 45.4208 1087.84 45.3547C1089.71 45.2886 1089.35 39.934 1088.46 38.5193C1087.58 37.1046 1088.25 33.5613 1091.25 33.7729C1094.25 33.9844 1095.42 33.3762 1095.68 31.9616C1095.86 31.47 1096.14 31.0212 1096.51 30.6433C1096.87 30.2654 1097.31 29.9666 1097.79 29.7656C1098.28 29.5645 1098.8 29.4655 1099.32 29.4749C1099.85 29.4842 1100.36 29.6016 1100.84 29.8197C1103.18 31.0361 1105.19 29.6875 1106.6 28.3522C1106.68 28.2672 1106.77 28.1917 1106.87 28.1274C1108.02 31.4063 1108.86 35.8751 1113.32 36.2585C1119.57 36.827 1119.03 41.8643 1117.89 45.3547Z" fill="#683F1D"/>
<path d="M989 140.746C989.555 137.189 999.577 134.532 1005.37 133.421L1007.59 147.779C1007.59 147.779 991.605 145.492 989 140.746Z" fill="#8C39CD"/>
<path d="M998.294 148.388C997.157 132.826 997.157 119.751 996.827 114.793C996.496 109.835 996.747 104.559 1002.58 102.153C1002.58 102.153 1002.58 97.5653 1009.19 96.7192C1009.19 96.7192 1008.36 92.6074 1013.91 92.7528C1013.9 92.3666 1013.97 91.9829 1014.14 91.632C1014.3 91.281 1014.54 90.9724 1014.84 90.7302C1015.14 90.488 1015.49 90.319 1015.87 90.2364C1016.25 90.1538 1016.64 90.1598 1017.02 90.254C1017.98 90.3506 1018.91 90.6577 1019.74 91.1534C1020.57 91.6492 1021.28 92.3216 1021.83 93.123C1026.65 92.0918 1029.35 97.0894 1029.11 101.228C1028.87 105.366 1028.56 109.888 1026.57 114.026C1024.59 118.164 1022.04 125.065 1022.04 125.065L1022.2 133.805C1022.2 133.805 1018.55 161.873 998.294 148.388Z" fill="#B25E47"/>
<path d="M996.827 114.793C996.483 109.835 996.748 104.559 1002.58 102.153C1002.58 102.153 1002.58 97.5653 1009.19 96.7192C1009.19 96.7192 1008.36 92.6074 1013.91 92.7528C1013.9 92.3666 1013.98 91.9829 1014.14 91.632C1014.3 91.281 1014.54 90.9724 1014.84 90.7302C1015.14 90.488 1015.49 90.319 1015.87 90.2364C1016.25 90.1538 1016.64 90.1598 1017.02 90.254C1017.98 90.3506 1018.91 90.6577 1019.74 91.1534C1020.57 91.6492 1021.29 92.3216 1021.83 93.123C1026.65 92.0918 1029.35 97.0894 1029.11 101.228" stroke="#914839" stroke-width="1.15577" stroke-linecap="round" stroke-linejoin="round"/>
<path d="M1021.87 93.0962C1016.9 95.5421 1013.25 100.13 1014.74 102.351C1016.24 104.572 1021.87 101.769 1022.67 101.029" stroke="#914839" stroke-width="1.15577" stroke-linecap="round" stroke-linejoin="round"/>
<path d="M1013.53 92.7264C1015.48 93.2541 1017.35 94.0365 1019.1 95.0533" stroke="#914839" stroke-width="1.15577" stroke-linecap="round" stroke-linejoin="round"/>
<path d="M1009.29 96.7189C1011.47 96.8079 1013.61 97.3577 1015.56 98.3319" stroke="#914839" stroke-width="1.15577" stroke-linecap="round" stroke-linejoin="round"/>
<path d="M1014.58 108.777C1016.25 107.455 1017.69 105.3 1017.23 103.237" stroke="#914839" stroke-width="1.15577" stroke-linecap="round" stroke-linejoin="round"/>
<path d="M1002.58 102.153C1006.54 100.527 1010.51 98.6758 1011.83 101.386C1013.16 104.096 1013.68 112.426 1011.83 113.55C1009.98 114.673 1006.86 113.748 1006.33 111.566C1005.8 109.385 1005.41 106.41 1005.41 106.41" stroke="#914839" stroke-width="1.15577" stroke-linecap="round" stroke-linejoin="round"/>
<path d="M1009.94 114.026C1011.61 116.089 1011.07 123.387 1009.23 125.819" stroke="#914839" stroke-width="1.15577" stroke-linecap="round" stroke-linejoin="round"/>
<path d="M1023.04 239.879C1019.79 246.013 1015.11 249.358 1008.96 247.269C997.25 243.303 992.596 232.078 990.891 221.118C989.106 209.681 990.507 198.509 990.454 196.143C990.335 191.489 989.053 140.772 989.053 140.772C991.089 141.579 994.156 141.592 997.885 140.905C1000.72 140.343 1003.5 139.538 1006.2 138.498C1011.86 136.342 1017.24 133.519 1022.22 130.09L1022.45 129.944C1022.45 129.944 1023.45 142.518 1024.83 156.968C1025.99 169.343 1027.47 183.093 1028.68 191.515C1030.66 205.08 1029.46 227.834 1023.04 239.879Z" fill="#8C39CD"/>
<path d="M1023.04 239.879C1019.79 246.013 1015.11 249.358 1008.96 247.269C997.25 243.303 992.596 232.078 990.891 221.118C992.979 224.657 995.439 227.963 998.228 230.981C1006.84 240.222 1015.91 242.219 1023.04 239.879Z" fill="#8C39CD"/>
<path d="M1022.4 129.918C1022.4 129.918 1025.89 173.257 1028.62 191.489C1030.12 203.085 1029.75 214.846 1027.54 226.327" stroke="#8C39CD" stroke-width="1.15577" stroke-linecap="round" stroke-linejoin="round"/>
<path d="M1146.11 182.059L1104.51 164.682C1101.22 163.312 1097.45 164.861 1096.08 168.142L1071.38 227.286C1070.01 230.568 1071.56 234.339 1074.84 235.709L1116.44 253.086C1119.72 254.456 1123.49 252.907 1124.86 249.626L1149.57 190.482C1150.94 187.2 1149.39 183.429 1146.11 182.059Z" fill="#DDDDDD"/>
<path d="M1141.44 180.1L1104.51 164.675C1101.23 163.305 1097.46 164.854 1096.09 168.135L1071.38 227.279C1070.01 230.561 1071.56 234.332 1074.84 235.702L1111.77 251.127C1115.05 252.498 1118.82 250.949 1120.19 247.668L1144.9 188.523C1146.27 185.242 1144.72 181.471 1141.44 180.1Z" fill="#F9F9F9" stroke="#DDDDDD" stroke-width="1.55503" stroke-linecap="round" stroke-linejoin="round"/>
<path d="M1106.95 174.513C1106.94 175.067 1106.78 175.608 1106.47 176.067C1106.16 176.526 1105.72 176.883 1105.21 177.093C1104.7 177.303 1104.13 177.357 1103.59 177.247C1103.05 177.138 1102.55 176.87 1102.16 176.477C1101.77 176.085 1101.5 175.585 1101.39 175.042C1101.29 174.499 1101.34 173.936 1101.56 173.424C1101.77 172.913 1102.13 172.476 1102.59 172.169C1103.05 171.861 1103.59 171.697 1104.14 171.697C1104.51 171.697 1104.88 171.77 1105.22 171.912C1105.56 172.053 1105.87 172.261 1106.13 172.523C1106.39 172.784 1106.6 173.095 1106.74 173.437C1106.88 173.778 1106.95 174.144 1106.95 174.513Z" fill="#DDDDDD"/>
<path d="M1111.57 177.329C1111.57 177.607 1111.49 177.878 1111.34 178.108C1111.18 178.338 1110.96 178.518 1110.71 178.624C1110.45 178.73 1110.17 178.758 1109.9 178.704C1109.63 178.65 1109.38 178.516 1109.18 178.32C1108.99 178.124 1108.85 177.875 1108.8 177.603C1108.74 177.331 1108.77 177.049 1108.88 176.793C1108.98 176.537 1109.16 176.318 1109.39 176.164C1109.62 176.01 1109.9 175.928 1110.17 175.928C1110.36 175.926 1110.54 175.961 1110.71 176.031C1110.88 176.101 1111.04 176.204 1111.17 176.335C1111.3 176.465 1111.4 176.62 1111.47 176.791C1111.54 176.962 1111.58 177.145 1111.57 177.329Z" fill="#DDDDDD"/>
<path d="M1109.52 223.788C1106.77 222.837 1105.35 217.522 1104.98 212.947L1115.76 214.269C1115.76 214.269 1115.84 224.489 1109.52 223.788Z" fill="#8C39CD"/>
<path d="M1113.15 221.091C1110.09 218.903 1106.92 216.874 1103.65 215.01C1102.43 214.335 1095.46 213.555 1090.59 210.885C1087.33 209.032 1084.18 206.979 1081.17 204.737L1079.25 208.307C1079.25 208.307 1075.48 204.234 1074.91 200.559C1074.34 196.883 1075.86 196.764 1076.76 195.984C1077.66 195.204 1077.09 194.028 1077.04 192.124C1076.99 190.22 1078.6 189.836 1079.1 189.175C1079.61 188.514 1079.1 186.769 1079.1 184.429C1079.1 182.089 1081.75 181.97 1082.22 180.635C1082.7 179.299 1083.06 174.989 1086.85 176.113C1090.65 177.237 1107.17 189.506 1108.28 190.061C1109.89 190.64 1111.53 191.108 1113.2 191.463C1113.2 191.463 1126.65 212.603 1113.15 221.091Z" fill="#B25E47"/>
<path d="M1081.17 204.737L1079.25 208.306C1079.25 208.306 1075.48 204.234 1074.91 200.559C1074.34 196.883 1075.86 196.764 1076.76 195.984C1077.66 195.204 1077.09 194.028 1077.04 192.124C1076.99 190.22 1078.6 189.836 1079.1 189.175C1079.61 188.514 1079.1 186.769 1079.1 184.429C1079.1 182.089 1081.75 181.97 1082.22 180.635C1082.7 179.299 1083.06 174.989 1086.85 176.113" stroke="#914839" stroke-width="1.15577" stroke-linecap="round" stroke-linejoin="round"/>
<path d="M1081.16 204.737C1079.27 203.163 1078.88 202.899 1078.88 202.899" stroke="#914839" stroke-width="1.15577" stroke-linecap="round" stroke-linejoin="round"/>
<path d="M1206.69 235.04C1203.22 245.617 1190.32 255.083 1160.89 243.964L1159.29 243.343C1128.72 231.245 1109.51 223.789 1109.51 223.789C1112.16 212.604 1112.16 200.955 1109.51 189.77C1127.08 194.689 1173.54 204.221 1190.04 209.06C1191.13 209.378 1192.17 209.721 1193.15 210.091C1206.99 215.235 1210.03 224.754 1206.69 235.04Z" fill="#8C39CD"/>
<path d="M1159.29 243.342C1128.72 231.245 1109.52 223.788 1109.52 223.788" stroke="#8C39CD" stroke-width="1.15577" stroke-linecap="round" stroke-linejoin="round"/>
<path d="M1109.52 189.77C1125.46 194.226 1165.21 202.489 1184.74 207.606" stroke="#8C39CD" stroke-width="1.15577" stroke-linecap="round" stroke-linejoin="round"/>
<path d="M1206.69 235.04C1203.22 245.617 1190.32 255.083 1160.89 243.964C1160.89 243.964 1169.56 233.995 1181.71 235.754C1193.86 237.512 1205.84 232.554 1196.51 218.381C1194.85 215.868 1193.71 213.05 1193.15 210.091C1206.99 215.234 1210.03 224.754 1206.69 235.04Z" fill="#8C39CD"/>
</svg>
